# Blender 4.3.2
# www.blender.org
mtllib painting2-2.mtl
g Object.002_Object.008
v -0.012367 -0.001383 -0.218896
v -0.012163 0.002046 -0.164827
v 0.005302 -0.001049 -0.216802
v 0.178274 0.002346 -0.084221
v 0.191490 -0.002506 -0.051760
v 0.232517 -0.000946 -0.080226
v 0.155814 0.000222 -0.182025
v 0.184913 0.002279 -0.193531
v 0.192881 0.000686 -0.213515
v 0.212749 -0.000386 -0.017704
v 0.159362 -0.003480 -0.007823
v 0.173334 -0.000509 -0.271962
v 0.182404 -0.002268 -0.311801
v 0.135615 -0.003274 -0.292213
v 0.098531 -0.000790 -0.271588
v 0.153737 0.000214 -0.317317
v 0.088412 -0.000720 -0.243781
v 0.130507 0.001289 -0.225653
v 0.085991 -0.000925 -0.069377
v 0.144104 0.002712 -0.112780
v 0.104855 0.003497 -0.129875
v -0.029904 0.003649 -0.136813
v -0.054001 0.003380 -0.063136
v -0.005183 -0.000766 -0.075584
v 0.125512 -0.001778 -0.023228
v 0.165484 -0.003631 -0.366430
v 0.185172 -0.001530 -0.356828
v 0.043896 0.000216 -0.121773
v 0.052890 0.002974 -0.106063
v 0.062725 0.004992 -0.145798
v 0.184418 -0.000508 -0.112628
v 0.057308 0.000052 -0.263526
v -0.027606 -0.001413 -0.300749
v 0.221312 0.002655 -0.278058
v 0.215460 -0.003224 -0.360163
v 0.179847 -0.000863 -0.416382
v 0.111337 -0.005090 -0.402338
v 0.187589 -0.001566 -0.128376
v 0.054335 0.004133 -0.200848
v 0.124919 0.002746 -0.157100
v 0.155696 -0.002347 -0.266948
v 0.001812 -0.002311 -0.348210
v 0.134760 0.000007 -0.200815
v 0.051776 0.001228 -0.037823
v -0.015962 0.001392 -0.031066
v 0.082375 -0.002219 -0.317240
v 0.152377 -0.000920 -0.354983
v -0.020501 -0.003669 -0.432749
v 0.010844 -0.005968 -0.430323
v 0.052713 0.001148 -0.414022
v 0.220396 0.001006 -0.251188
v -0.016661 -0.005321 -0.367578
v -0.042188 -0.002951 -0.343705
v 0.161535 -0.002637 -0.072239
v 0.172696 -0.001782 -0.221622
v 0.078051 -0.001064 -0.397397
v 0.211520 0.000533 -0.151729
v 0.099654 -0.004601 -0.362251
v 0.054279 -0.000349 -0.316076
v -0.120831 0.002384 -0.011456
v -0.111550 0.003454 -0.080788
v -0.073958 0.002031 -0.037388
v -0.112197 0.001668 -0.241241
v -0.041651 0.001249 -0.230848
v -0.073483 0.003159 -0.227005
v -0.104391 0.002581 -0.162020
v -0.104623 -0.001839 -0.315550
v -0.101203 0.005691 -0.109162
v -0.052679 0.001392 -0.163368
v -0.053145 0.000273 -0.114197
v -0.081463 0.001617 -0.302753
v -0.043675 -0.000237 -0.415473
v -0.076417 0.001931 -0.390962
v -0.099519 0.001156 -0.370282
v -0.129925 -0.002077 -0.349484
v 0.232359 -0.002138 -0.441328
v 0.211703 -0.004929 -0.441328
v 0.196074 -0.003252 -0.441328
v 0.154105 -0.001882 -0.441328
v 0.122040 -0.003736 -0.441328
v 0.112172 -0.003134 -0.441328
v 0.085321 -0.000556 -0.441328
v 0.074116 -0.002464 -0.441328
v 0.100804 -0.001670 -0.441328
v 0.046189 -0.002050 -0.441328
v 0.182602 -0.001062 -0.441328
v 0.170457 -0.002466 -0.441328
v -0.102360 0.004989 -0.441328
v -0.113107 0.004316 -0.441328
v -0.072232 -0.002348 -0.441328
v -0.058825 -0.002386 -0.441328
v 0.020316 -0.005598 -0.441328
v 0.002100 -0.005213 -0.441328
v -0.019752 -0.003629 -0.441328
v -0.024198 -0.003013 -0.441328
v -0.038480 -0.000797 -0.441328
v -0.128937 -0.000012 -0.441328
v 0.032234 -0.001974 0.447099
v 0.032234 -0.001974 0.447099
v 0.219263 -0.001488 0.001887
v 0.211954 -0.000938 0.001887
v 0.206958 -0.000416 0.001887
v 0.161215 -0.003206 0.001887
v 0.151094 -0.002263 0.001887
v 0.090018 -0.001399 0.001887
v 0.108790 -0.001676 0.001887
v 0.112605 -0.002972 0.001887
v 0.138695 -0.001304 0.001887
v 0.041341 -0.000998 0.001887
v -0.012721 0.000470 0.001887
v 0.075779 -0.000464 0.001887
v -0.124084 0.001397 0.001887
v -0.117144 0.001492 0.001887
v -0.092749 0.002322 0.001887
v -0.024216 0.000530 0.001887
v -0.063650 0.002186 0.001887
v -0.034681 0.000613 0.001887
v -0.132891 0.000032 -0.104913
v -0.132891 0.000074 -0.107841
v -0.132891 -0.000131 -0.112111
v -0.132891 0.002467 -0.171968
v -0.132891 -0.001358 -0.254080
v -0.132891 -0.000987 -0.247734
v -0.132891 0.000988 0.001887
v -0.132891 0.002712 -0.025614
v -0.132891 0.003379 -0.066116
v -0.132891 0.003944 -0.083515
v -0.132891 0.001880 -0.222941
v -0.132891 0.000203 -0.245815
v -0.132891 0.002055 -0.236248
v -0.132891 -0.002121 -0.267141
v -0.132891 -0.002110 -0.326131
v -0.132891 0.001962 -0.370872
v -0.132891 -0.001759 -0.350860
v -0.132891 -0.000595 -0.401861
v -0.132891 0.000744 -0.416262
v -0.132891 -0.000536 -0.396126
v -0.132891 -0.002091 -0.348556
v -0.132891 -0.000305 -0.430579
v -0.132891 0.000195 -0.441328
v 0.233235 0.001642 -0.197167
v 0.233235 -0.000280 -0.176118
v 0.233235 0.000449 -0.253088
v 0.233235 0.001032 -0.239565
v 0.233235 0.001407 -0.231703
v 0.233235 -0.000270 -0.174640
v 0.233235 0.001769 -0.273985
v 0.233235 0.001164 -0.306206
v 0.233235 -0.001673 -0.347369
v 0.233235 -0.001169 -0.358320
v 0.233235 -0.001611 -0.413639
v 0.233235 -0.002082 -0.441328
v 0.233235 -0.002007 -0.440423
v 0.233235 -0.001004 -0.028450
v 0.233235 -0.001503 -0.036636
v 0.233235 -0.000970 -0.076835
v 0.233235 -0.002197 0.001887
v 0.233235 -0.001053 -0.079815
v 0.233235 -0.000144 -0.093917
v 0.233235 0.000955 -0.113197
v 0.233235 0.000930 -0.113538
v 0.233235 0.000965 -0.114925
v 0.233235 -0.000114 -0.151037
v 0.014381 -0.013348 -0.439048
v 0.232239 -0.013340 -0.014582
v 0.232239 -0.013343 -0.439048
v 0.055311 -0.013338 0.001311
v 0.232239 -0.013339 0.001311
v -0.134726 -0.013342 -0.212578
v -0.134726 -0.013337 0.001311
v -0.134726 -0.013345 -0.439048
v 0.232239 -0.022948 -0.439048
v 0.014381 -0.022953 -0.439048
v 0.232239 -0.022944 -0.014582
v 0.232239 -0.022944 0.001311
v 0.055311 -0.022943 0.001311
v -0.134726 -0.022946 -0.212578
v -0.134726 -0.022941 0.001311
v -0.134726 -0.022949 -0.439048
vn 0.0208 0.9997 -0.0149
vn 0.0381 0.9991 -0.0194
vn -0.0418 0.9989 -0.0218
vn 0.0326 0.9984 0.0460
vn -0.0235 0.9993 0.0293
vn 0.0335 0.9991 0.0265
vn -0.0369 0.9948 -0.0952
vn 0.0368 0.9993 -0.0096
vn -0.0254 0.9997 0.0009
vn -0.0025 1.0000 -0.0023
vn -0.0100 0.9998 -0.0155
vn -0.0645 0.9979 -0.0092
vn -0.0142 0.9995 -0.0279
vn 0.0238 0.9997 -0.0005
vn -0.0092 0.9996 -0.0253
vn -0.0227 0.9997 -0.0044
vn 0.0209 0.9991 -0.0370
vn 0.0202 0.9994 -0.0283
vn 0.0208 0.9991 0.0362
vn 0.0051 0.9993 0.0376
vn 0.0061 0.9990 0.0445
vn 0.0073 1.0000 0.0011
vn 0.0338 0.9992 0.0216
vn 0.0115 0.9998 0.0154
vn 0.0475 0.9988 -0.0151
vn 0.1200 0.9917 0.0462
vn 0.0263 0.9992 0.0305
vn -0.0265 0.9996 -0.0093
vn -0.0099 0.9999 0.0137
vn -0.0523 0.9985 -0.0161
vn -0.0048 0.9996 0.0261
vn -0.0261 0.9996 0.0118
vn 0.0996 0.9949 -0.0148
vn -0.0088 0.9997 -0.0218
vn 0.0173 0.9997 -0.0196
vn -0.0094 0.9996 -0.0276
vn -0.0263 0.9993 -0.0255
vn 0.0022 1.0000 -0.0002
vn -0.0071 1.0000 0.0063
vn -0.0079 0.9997 0.0210
vn -0.0733 0.9928 0.0947
vn -0.0879 0.9931 0.0771
vn -0.0198 0.9993 -0.0325
vn 0.0236 0.9995 -0.0224
vn 0.0223 0.9996 -0.0155
vn -0.0535 0.9982 -0.0258
vn 0.0434 0.9983 -0.0388
vn 0.0125 0.9996 0.0245
vn 0.0064 0.9999 -0.0110
vn 0.0374 0.9990 -0.0248
vn 0.0458 0.9967 -0.0671
vn 0.1125 0.9935 0.0158
vn 0.0853 0.9961 0.0210
vn 0.1345 0.9907 0.0182
vn -0.0567 0.9981 -0.0254
vn -0.1440 0.9895 0.0092
vn 0.0273 0.9992 0.0298
vn -0.0487 0.9965 -0.0685
vn -0.0775 0.9967 -0.0230
vn -0.0426 0.9981 -0.0448
vn -0.1302 0.9899 -0.0562
vn 0.0071 0.9999 -0.0106
vn 0.0621 0.9981 0.0004
vn 0.0684 0.9974 -0.0217
vn 0.0156 0.9975 0.0688
vn -0.0335 0.9992 -0.0221
vn -0.0762 0.9971 -0.0060
vn -0.2515 0.9622 -0.1044
vn 0.1019 0.9944 0.0276
vn 0.0779 0.9883 0.1314
vn 0.0127 0.9999 0.0033
vn 0.0047 0.9996 -0.0270
vn 0.0300 0.9995 -0.0066
vn -0.0248 0.9996 0.0146
vn 0.0113 0.9997 -0.0205
vn 0.0538 0.9986 0.0011
vn 0.0227 0.9997 0.0076
vn -0.0002 1.0000 -0.0019
vn 0.0256 0.9975 0.0659
vn -0.0026 0.9999 -0.0126
vn 0.1370 0.9905 -0.0126
vn -0.0659 0.9977 0.0180
vn 0.0403 0.9977 -0.0551
vn 0.0919 0.9923 -0.0826
vn -0.0297 0.9964 0.0799
vn 0.1198 0.9928 -0.0020
vn -0.0283 0.9987 -0.0434
vn -0.0638 0.9966 0.0516
vn -0.0223 0.9997 -0.0032
vn 0.0169 0.9998 -0.0076
vn 0.0924 0.9955 0.0193
vn -0.0064 0.9994 0.0327
vn -0.0042 0.9996 0.0278
vn -0.0443 0.9971 0.0622
vn -0.0361 0.9982 0.0475
vn -0.0037 0.9999 0.0096
vn 0.0196 0.9994 0.0296
vn 0.0211 0.9997 0.0114
vn -0.0285 0.9985 -0.0478
vn 0.0155 0.9974 -0.0701
vn 0.0162 0.9999 -0.0020
vn 0.0465 0.9988 -0.0160
vn 0.0068 1.0000 -0.0057
vn 0.0008 1.0000 -0.0000
vn 0.0400 0.9201 -0.3896
vn -0.0031 1.0000 0.0089
vn -0.0838 0.9964 -0.0116
vn 0.0453 0.9927 -0.1114
vn -0.1091 0.9923 -0.0580
vn 0.0784 0.9480 -0.3086
vn -0.0789 0.9964 -0.0302
vn -0.0166 0.9998 0.0067
vn 0.0211 0.9993 -0.0308
vn 0.0159 0.9997 -0.0181
vn -0.0218 0.9991 -0.0372
vn -0.0296 0.9993 0.0230
vn 0.0079 0.9996 -0.0278
vn 0.1420 0.9897 0.0181
vn 0.0183 0.9986 -0.0490
vn 0.0247 0.9995 -0.0184
vn 0.0086 0.9999 0.0111
vn 0.0042 0.9998 0.0180
vn 0.0313 0.9995 -0.0015
vn 0.0574 0.9983 -0.0122
vn 0.0585 0.9983 0.0081
vn 0.1177 0.9908 -0.0671
vn 0.0758 0.9944 0.0735
vn -0.0348 0.9993 0.0158
vn 0.0250 0.9976 0.0646
vn 0.0535 0.9855 0.1607
vn 0.0413 0.9981 0.0449
vn 0.0298 0.9986 0.0448
vn -0.0366 0.9985 0.0407
vn -0.0123 0.9995 -0.0291
vn 0.0382 0.9988 0.0300
vn 0.0457 0.9985 0.0300
vn -0.0113 0.9999 -0.0019
vn -0.0332 0.9978 0.0571
vn 0.0273 0.9894 0.1424
vn -0.0763 0.9970 -0.0088
vn -0.1686 0.9853 -0.0292
vn -0.1553 0.9877 0.0195
vn -0.1012 0.9904 0.0937
vn -0.1548 0.9879 0.0134
vn -0.1976 0.9789 -0.0524
vn -0.0703 0.9962 0.0505
vn -0.0244 0.9980 -0.0583
vn 0.0691 0.9972 0.0302
vn 0.0167 0.9987 0.0486
vn 0.2099 0.9755 0.0660
vn 0.0076 0.9998 0.0198
vn -0.1262 0.9912 -0.0405
vn -0.1321 0.9909 -0.0253
vn 0.0780 0.9936 0.0818
vn -0.0921 0.9956 -0.0197
vn 0.0446 0.9952 -0.0875
vn 0.1146 0.9873 -0.1096
vn 0.0245 0.9991 -0.0332
vn -0.1507 0.9882 0.0277
vn -0.1426 0.9809 0.1320
vn 0.0468 0.9984 0.0333
vn -0.0000 -1.0000 -0.0000
vn -0.0000 1.0000 -0.0000
vn -0.0000 -0.0000 1.0000
vn 1.0000 -0.0000 -0.0000
vn -0.0000 -0.0000 -1.0000
vn -1.0000 -0.0000 -0.0000
vt 0.418846 0.220526
vt 0.418973 0.266345
vt 0.433811 0.222313
vt 0.580249 0.334740
vt 0.591447 0.362217
vt 0.626211 0.338138
vt 0.561288 0.251869
vt 0.585937 0.242152
vt 0.592705 0.225221
vt 0.609426 0.391089
vt 0.564208 0.399408
vt 0.576186 0.175694
vt 0.583899 0.141945
vt 0.544256 0.158502
vt 0.512819 0.175965
vt 0.559608 0.137269
vt 0.504230 0.199513
vt 0.539871 0.214905
vt 0.502078 0.347239
vt 0.551318 0.310530
vt 0.518076 0.296030
vt 0.403921 0.290072
vt 0.383466 0.352464
vt 0.424845 0.341926
vt 0.505451 0.407603
vt 0.521354 0.407613
vt 0.535535 0.386348
vt 0.569604 0.095654
vt 0.586268 0.103811
vt 0.466444 0.302837
vt 0.474043 0.316165
vt 0.482390 0.282526
vt 0.585483 0.310665
vt 0.477890 0.182773
vt 0.405985 0.151183
vt 0.616819 0.170578
vt 0.611935 0.100994
vt 0.581788 0.053366
vt 0.523761 0.065196
vt 0.588183 0.297321
vt 0.626831 0.310221
vt 0.626831 0.309932
vt 0.475318 0.235885
vt 0.535092 0.272977
vt 0.561249 0.179921
vt 0.430936 0.110994
vt 0.543466 0.235939
vt 0.473067 0.373958
vt 0.415680 0.379641
vt 0.499166 0.137277
vt 0.558483 0.105357
vt 0.412090 0.039364
vt 0.412729 0.032098
vt 0.408960 0.032099
vt 0.438651 0.041425
vt 0.446679 0.032111
vt 0.431247 0.032102
vt 0.626943 0.146735
vt 0.626979 0.111852
vt 0.474080 0.055299
vt 0.468582 0.032147
vt 0.616035 0.193329
vt 0.415312 0.094560
vt 0.393663 0.114780
vt 0.566083 0.344851
vt 0.575621 0.218328
vt 0.501726 0.032180
vt 0.492242 0.032162
vt 0.495544 0.069384
vt 0.514847 0.032183
vt 0.608460 0.277567
vt 0.626858 0.278163
vt 0.626872 0.258169
vt 0.626873 0.256918
vt 0.513838 0.099148
vt 0.493385 0.407600
vt 0.475356 0.138257
vt 0.560001 0.032214
vt 0.532845 0.032184
vt 0.608807 0.032232
vt 0.595559 0.032232
vt 0.626832 0.308757
vt 0.546686 0.407633
vt 0.557193 0.407635
vt 0.626824 0.326546
vt 0.584137 0.032236
vt 0.573855 0.032220
vt 0.626877 0.239099
vt 0.626898 0.209843
vt 0.604510 0.407680
vt 0.608744 0.407680
vt 0.326827 0.396193
vt 0.316617 0.384195
vt 0.316609 0.407481
vt 0.324068 0.407488
vt 0.334725 0.337477
vt 0.316638 0.349891
vt 0.366551 0.374254
vt 0.334278 0.201555
vt 0.316743 0.205774
vt 0.316736 0.217045
vt 0.394036 0.210400
vt 0.367059 0.213646
vt 0.340840 0.268670
vt 0.316756 0.197660
vt 0.316703 0.260225
vt 0.340752 0.138597
vt 0.316778 0.179583
vt 0.316767 0.190651
vt 0.316762 0.196028
vt 0.343497 0.313462
vt 0.384653 0.267552
vt 0.384234 0.309196
vt 0.360350 0.149470
vt 0.626797 0.375060
vt 0.626818 0.341011
vt 0.626790 0.381996
vt 0.626820 0.338486
vt 0.565771 0.407636
vt 0.375259 0.407529
vt 0.399806 0.407538
vt 0.408672 0.407544
vt 0.396852 0.032103
vt 0.392434 0.054003
vt 0.364675 0.074758
vt 0.368267 0.032073
vt 0.342714 0.032096
vt 0.345095 0.092256
vt 0.319339 0.109837
vt 0.316825 0.108671
vt 0.316825 0.110621
vt 0.316821 0.091740
vt 0.316850 0.065477
vt 0.316846 0.070335
vt 0.626915 0.191725
vt 0.626921 0.174031
vt 0.350608 0.407512
vt 0.329946 0.407493
vt 0.524483 0.032181
vt 0.626293 0.032260
vt 0.627017 0.055717
vt 0.627034 0.033028
vt 0.333612 0.032086
vt 0.320221 0.032052
vt 0.316866 0.041154
vt 0.316853 0.053286
vt 0.379624 0.032081
vt 0.614938 0.407681
vt 0.464213 0.407576
vt 0.524591 0.407608
vt 0.418410 0.407551
vt 0.316679 0.310912
vt 0.316675 0.314530
vt 0.316870 0.032051
vt 0.316674 0.317010
vt 0.316646 0.335157
vt 0.316812 0.129616
vt 0.626905 0.203182
vt 0.626983 0.102578
vt 0.627035 0.032261
vt 0.626778 0.407686
vt 0.000000 0.000000
s 1
usemtl Material.009
f 1/1/1 2/2/2 3/3/3
f 4/4/4 5/5/5 6/6/6
f 7/7/7 8/8/8 9/9/9
f 10/10/10 5/5/5 11/11/11
f 12/12/12 13/13/13 14/14/14
f 15/15/15 14/14/14 16/16/16
f 15/15/15 17/17/17 18/18/18
f 19/19/19 20/20/20 21/21/21
f 22/22/22 23/23/23 24/24/24
f 19/19/19 105/25/25 106/26/26 25/27/27
f 26/28/28 13/13/13 27/29/29
f 28/30/30 29/31/31 30/32/32
f 31/33/33 4/4/4 6/6/6
f 1/1/1 32/34/34 33/35/35
f 34/36/36 35/37/37 13/13/13
f 36/38/38 37/39/39 26/28/28
f 3/3/3 2/2/2 28/30/30
f 38/40/40 31/33/33 160/41/41 161/42/42
f 4/4/4 8/8/8 20/20/20
f 39/43/43 17/17/17 32/34/34
f 40/44/44 20/20/20 8/8/8
f 20/20/20 40/44/44 21/21/21
f 41/45/45 12/12/12 14/14/14
f 42/46/46 33/35/35 32/34/34
f 13/13/13 12/12/12 34/36/36
f 35/37/37 27/29/29 13/13/13
f 39/43/43 40/44/44 43/47/47
f 18/18/18 17/17/17 43/47/47
f 44/48/48 24/24/24 45/49/49
f 38/40/40 8/8/8 31/33/33
f 15/15/15 46/50/50 17/17/17
f 21/21/21 29/31/31 19/19/19
f 47/51/51 26/28/28 37/39/39
f 26/28/28 47/51/51 13/13/13
f 48/52/52 94/53/53 95/54/54
f 29/31/31 28/30/30 2/2/2
f 22/22/22 24/24/24 2/2/2
f 14/14/14 13/13/13 16/16/16
f 43/47/47 17/17/17 39/43/43
f 49/55/55 92/56/56 93/57/57
f 35/37/37 34/36/36 148/58/58 149/59/59
f 50/60/60 85/61/61 92/56/56 49/55/55
f 43/47/47 41/45/45 18/18/18
f 30/32/32 39/43/43 28/30/30
f 12/12/12 9/9/9 51/62/62
f 40/44/44 8/8/8 7/7/7
f 30/32/32 40/44/44 39/43/43
f 52/63/63 53/64/64 42/46/46
f 5/5/5 54/65/65 11/11/11
f 14/14/14 18/18/18 41/45/45
f 18/18/18 14/14/14 15/15/15
f 55/66/66 12/12/12 41/45/45
f 50/60/60 82/67/67 83/68/68
f 2/2/2 24/24/24 29/31/31
f 12/12/12 51/62/62 34/36/36
f 56/69/69 84/70/70 82/67/67 50/60/60
f 9/9/9 57/71/71 163/72/72 146/73/73 142/74/74
f 29/31/31 21/21/21 40/44/44
f 4/4/4 31/33/33 8/8/8
f 43/47/47 40/44/44 7/7/7
f 58/75/75 37/39/39 56/69/69
f 58/75/75 15/15/15 16/16/16
f 57/71/71 8/8/8 38/40/40
f 44/48/48 111/76/76 105/25/25 19/19/19
f 24/24/24 44/48/48 29/31/31
f 59/77/77 56/69/69 50/60/60
f 36/38/38 79/78/78 80/79/79 37/39/39
f 57/71/71 9/9/9 8/8/8
f 40/44/44 30/32/32 29/31/31
f 49/55/55 48/52/52 52/63/63
f 5/5/5 4/4/4 54/65/65
f 58/75/75 16/16/16 37/39/39
f 41/45/45 43/47/47 55/66/66
f 42/46/46 59/77/77 50/60/60
f 16/16/16 47/51/51 37/39/39
f 44/48/48 19/19/19 29/31/31
f 7/7/7 9/9/9 55/66/66
f 54/65/65 25/27/27 11/11/11
f 13/13/13 47/51/51 16/16/16
f 35/37/37 77/80/80 78/81/81 36/38/38
f 49/55/55 42/46/46 50/60/60
f 55/66/66 43/47/47 7/7/7
f 42/46/46 49/55/55 52/63/63
f 35/37/37 36/38/38 27/29/29
f 38/40/40 161/42/42 162/82/82 57/71/71
f 25/27/27 108/83/83 104/84/84 11/11/11
f 20/20/20 25/27/27 54/65/65
f 31/33/33 6/6/6 159/85/85 160/41/41
f 53/64/64 33/35/35 42/46/46
f 36/38/38 86/86/86 87/87/87
f 20/20/20 19/19/19 25/27/27
f 32/34/34 46/50/50 59/77/77
f 15/15/15 58/75/75 46/50/50
f 46/50/50 32/34/34 17/17/17
f 39/43/43 3/3/3 28/30/30
f 58/75/75 56/69/69 59/77/77
f 32/34/34 59/77/77 42/46/46
f 32/34/34 1/1/1 3/3/3
f 58/75/75 59/77/77 46/50/50
f 55/66/66 9/9/9 12/12/12
f 26/28/28 27/29/29 36/38/38
f 32/34/34 3/3/3 39/43/43
f 51/62/62 9/9/9 141/88/88 145/89/89
f 54/65/65 4/4/4 20/20/20
f 10/10/10 102/90/90 101/91/91
f 60/92/92 125/93/93 124/94/94 112/95/95
f 61/96/96 126/97/97 125/93/93 60/92/92
f 62/98/98 61/96/96 60/92/92
f 63/99/99 130/100/100 128/101/101
f 64/102/102 65/103/103 66/104/104
f 24/24/24 23/23/23 62/98/98
f 63/99/99 129/105/105 130/100/100
f 65/103/103 63/99/99 66/104/104
f 63/99/99 128/101/101 121/106/106 66/104/104
f 67/107/107 131/108/108 122/109/109 123/110/110 63/99/99
f 68/111/111 61/96/96 23/23/23
f 66/104/104 69/112/112 64/102/102
f 68/111/111 23/23/23 70/113/113
f 65/103/103 71/114/114 63/99/99
f 71/114/114 67/107/107 63/99/99
f 70/113/113 66/104/104 68/111/111
f 71/114/114 65/103/103 64/102/102
f 62/98/98 45/49/49 24/24/24
f 33/35/35 64/102/102 1/1/1
f 23/23/23 61/96/96 62/98/98
f 69/112/112 22/22/22 64/102/102
f 2/2/2 1/1/1 64/102/102
f 70/113/113 23/23/23 22/22/22
f 22/22/22 2/2/2 64/102/102
f 70/113/113 22/22/22 69/112/112
f 66/104/104 70/113/113 69/112/112
f 6/6/6 5/5/5 155/115/115 156/116/116
f 5/5/5 10/10/10 154/117/117 155/115/115
f 6/6/6 158/118/118 159/85/85
f 11/11/11 104/84/84 103/119/119
f 62/98/98 116/120/120 117/121/121
f 62/98/98 117/121/121 115/122/122 45/49/49
f 48/52/52 95/54/54 96/123/123 72/124/124
f 73/125/125 90/126/126 88/127/127
f 48/52/52 72/124/124 52/63/63
f 73/125/125 53/64/64 52/63/63
f 52/63/63 72/124/124 73/125/125
f 71/114/114 73/125/125 74/128/128
f 33/35/35 71/114/114 64/102/102
f 73/125/125 71/114/114 53/64/64
f 67/107/107 71/114/114 74/128/128
f 53/64/64 71/114/114 33/35/35
f 75/129/129 134/130/130 138/131/131
f 75/129/129 74/128/128 133/132/132 134/130/130
f 73/125/125 135/133/133 137/134/134 74/128/128
f 74/128/128 75/129/129 67/107/107
f 34/36/36 51/62/62 143/135/135 147/136/136
f 62/98/98 60/92/92 114/137/137 116/120/120
f 60/92/92 113/138/138 114/137/137
f 60/92/92 112/95/95 113/138/138
f 81/139/139 84/70/70 56/69/69 37/39/39
f 93/57/57 94/53/53 48/52/52 49/55/55
f 80/79/79 81/139/139 37/39/39
f 76/140/140 77/80/80 35/37/37 151/141/141 153/142/142
f 87/87/87 79/78/78 36/38/38
f 83/68/68 85/61/61 50/60/60
f 89/143/143 97/144/144 139/145/145 136/146/146
f 78/81/81 86/86/86 36/38/38
f 96/123/123 91/147/147 72/124/124
f 91/147/147 90/126/126 73/125/125 72/124/124
f 101/91/91 100/148/148 10/10/10
f 109/149/149 111/76/76 44/48/48
f 106/26/26 107/150/150 25/27/27
f 115/122/122 110/151/151 44/48/48 45/49/49
f 103/119/119 102/90/90 10/10/10 11/11/11
f 110/151/151 109/149/149 44/48/48
f 107/150/150 108/83/83 25/27/27
f 120/152/152 119/153/153 68/111/111 66/104/104
f 140/154/154 139/145/145 97/144/144
f 118/155/155 127/156/156 61/96/96
f 136/146/146 135/133/133 73/125/125 88/127/127 89/143/143
f 138/131/131 132/157/157 75/129/129
f 132/157/157 131/108/108 67/107/107 75/129/129
f 127/156/156 126/97/97 61/96/96
f 121/106/106 120/152/152 66/104/104
f 119/153/153 118/155/155 61/96/96 68/111/111
f 123/110/110 129/105/105 63/99/99
f 137/134/134 133/132/132 74/128/128
f 144/158/158 143/135/135 51/62/62
f 142/74/74 141/88/88 9/9/9
f 147/136/136 148/58/58 34/36/36
f 150/159/159 151/141/141 35/37/37
f 156/116/116 158/118/118 6/6/6
f 153/142/142 152/160/160 76/140/140
f 149/59/59 150/159/159 35/37/37
f 162/82/82 163/72/72 57/71/71
f 157/161/161 154/117/117 10/10/10 100/148/148
f 145/89/89 144/158/158 51/62/62
s 0
f 171/162/162 164/162/162 166/162/162 165/162/162 168/162/162 167/162/162 170/162/162 169/162/162
f 179/162/163 177/162/163 178/162/163 176/162/163 175/162/163 174/162/163 172/162/163 173/162/163
f 164/162/164 171/162/164 179/162/164 173/162/164
f 169/162/165 170/162/165 178/162/165 177/162/165
f 167/162/166 168/162/166 175/162/166 176/162/166
f 166/162/164 164/162/164 173/162/164 172/162/164
f 170/162/166 167/162/166 176/162/166 178/162/166
f 171/162/165 169/162/165 177/162/165 179/162/165
f 168/162/167 165/162/167 174/162/167 175/162/167
f 165/162/167 166/162/167 172/162/167 174/162/167
l 99 98
