# Blender 4.3.2
# www.blender.org
mtllib painting3-2.mtl
g Object.007_Plane.007
v 0.589765 -0.013336 -0.439048
v 0.256219 -0.013340 -0.037374
v 0.256219 -0.013343 -0.439048
v 0.589765 -0.013336 0.005461
v 0.256219 -0.013339 0.005461
v 0.258463 -0.000946 -0.080226
v 0.260194 0.000985 -0.113209
v 0.272545 -0.000507 -0.337750
v 0.271240 0.000224 -0.357070
v 0.287210 -0.000950 -0.150143
v 0.290226 0.002377 -0.184590
v 0.534760 -0.002591 -0.059516
v 0.338864 -0.001992 -0.016464
v 0.414822 -0.001686 -0.022035
v 0.383585 -0.003787 -0.050946
v 0.382542 -0.000814 0.000906
v 0.530674 -0.001911 -0.124178
v 0.556558 -0.004862 -0.080350
v 0.568318 -0.003783 -0.119562
v 0.455813 -0.004515 -0.053388
v 0.512164 -0.003067 -0.154927
v 0.460815 -0.004904 -0.136058
v 0.466429 -0.003474 -0.083763
v 0.365752 -0.000766 -0.116321
v 0.324738 0.002290 -0.114877
v 0.349131 0.000357 -0.064938
v 0.310072 -0.000982 -0.021362
v 0.575615 -0.003532 -0.166085
v 0.297037 -0.000142 -0.075262
v 0.278009 -0.003858 -0.069050
v 0.268411 -0.001282 -0.033292
v 0.457315 -0.003467 -0.165348
v 0.424688 -0.001779 -0.091095
v 0.421767 -0.003172 -0.067675
v 0.400522 -0.001315 -0.180358
v 0.324061 -0.002791 -0.078105
v 0.372372 -0.003671 -0.180318
v 0.422037 -0.002822 -0.235060
v 0.449216 -0.003893 -0.306052
v 0.379334 -0.001436 -0.253895
v 0.356128 -0.001205 -0.298687
v 0.346972 -0.003356 -0.356834
v 0.312559 -0.004980 -0.330343
v 0.342131 -0.005380 -0.390893
v 0.417422 -0.005907 -0.416518
v 0.403807 -0.000776 -0.352358
v 0.461445 -0.002308 -0.274897
v 0.435000 -0.004235 -0.337444
v 0.432315 -0.006321 -0.378123
v 0.474658 -0.001224 -0.324039
v 0.445159 -0.002156 -0.436259
v 0.513232 -0.004086 -0.330129
v 0.530384 -0.003450 -0.211491
v 0.494773 -0.001032 -0.203524
v 0.461719 -0.000080 -0.227422
v 0.544307 -0.004366 -0.273216
v 0.569993 -0.005293 -0.435156
v 0.556277 -0.008815 -0.413385
v 0.556154 -0.005424 -0.370292
v 0.542322 -0.007955 -0.390141
v 0.568571 -0.006774 -0.326008
v 0.579446 -0.007380 -0.348267
v 0.571380 -0.004470 -0.273591
v 0.475567 -0.007040 -0.434200
v 0.516384 -0.007328 -0.435769
v 0.301865 -0.001404 -0.259403
v 0.296185 -0.005308 -0.385215
v 0.265807 -0.001010 -0.433572
v 0.575153 -0.001524 -0.239830
v 0.576316 -0.004608 -0.188432
v 0.328095 -0.001272 -0.237542
v 0.347064 0.001655 -0.207546
v 0.319159 0.001153 -0.185267
v 0.579449 -0.006102 -0.441328
v 0.568126 -0.006074 -0.441328
v 0.549331 -0.005150 -0.441328
v 0.525726 -0.005972 -0.441328
v 0.515653 -0.006488 -0.441328
v 0.441804 -0.003304 -0.441328
v 0.423792 -0.006933 -0.441328
v 0.491245 -0.006176 -0.441328
v 0.479661 -0.007113 -0.441328
v 0.454532 -0.003211 -0.441328
v 0.446034 -0.002516 -0.441328
v 0.400807 -0.005380 -0.441328
v 0.380175 -0.005141 -0.441328
v 0.357948 -0.005826 -0.441328
v 0.343310 -0.004966 -0.441328
v 0.320278 -0.003461 -0.441328
v 0.280252 -0.003513 -0.441328
v 0.313510 -0.003226 -0.441328
v 0.317035 -0.003249 -0.441328
v 0.273711 -0.002235 -0.441328
v 0.268114 -0.001507 -0.441328
v 0.258305 -0.002138 -0.441328
v 0.593687 0.000010 -0.002415
v 0.593711 -0.001748 -0.034324
v 0.593755 -0.005154 -0.068161
v 0.593753 -0.004986 -0.094441
v 0.593748 -0.004573 -0.107271
v 0.593732 -0.003389 -0.132665
v 0.593731 -0.003318 -0.154577
v 0.593726 -0.002904 -0.175342
v 0.593734 -0.003491 -0.187078
v 0.593751 -0.004805 -0.203018
v 0.593728 -0.003036 -0.207710
v 0.593707 -0.001439 -0.234100
v 0.593724 -0.002771 -0.248918
v 0.593752 -0.004860 -0.266011
v 0.593729 -0.003177 -0.288013
v 0.593737 -0.003725 -0.303853
v 0.593749 -0.004659 -0.327656
v 0.593770 -0.006248 -0.332582
v 0.593776 -0.006679 -0.342635
v 0.593775 -0.006614 -0.376151
v 0.593775 -0.006674 -0.409801
v 0.593761 -0.005553 -0.419259
v 0.593777 -0.006800 -0.441328
v 0.058180 -0.001974 0.447099
v 0.058180 -0.001974 0.447099
v 0.593694 -0.000504 0.005662
v 0.578584 0.000221 0.005662
v 0.565929 0.000025 0.005662
v 0.514549 -0.001946 0.005662
v 0.484688 -0.000158 0.005662
v 0.563778 0.000122 0.005662
v 0.532009 -0.001496 0.005662
v 0.428476 -0.000887 0.005662
v 0.412331 -0.001484 0.005662
v 0.437109 -0.001804 0.005662
v 0.454472 -0.002582 0.005662
v 0.384190 -0.000828 0.005662
v 0.382088 -0.000911 0.005662
v 0.353068 -0.001891 0.005662
v 0.320243 -0.000759 0.005662
v 0.295960 -0.002065 0.005662
v 0.311188 -0.000406 0.005662
v 0.260668 -0.002421 0.005662
v 0.282565 -0.002099 0.005662
v 0.295133 -0.002155 0.005662
v 0.257294 0.001597 -0.197931
v 0.257294 -0.000234 -0.177867
v 0.257294 -0.000058 -0.151097
v 0.257294 0.000927 -0.118124
v 0.257294 0.000936 -0.243405
v 0.257294 0.001028 -0.241273
v 0.257294 0.001348 -0.234567
v 0.257294 -0.000947 -0.027460
v 0.257294 -0.002250 0.005662
v 0.257294 -0.001549 -0.037319
v 0.257294 -0.000990 -0.079415
v 0.257294 -0.000875 -0.080312
v 0.257294 -0.000935 -0.081013
v 0.257294 0.000898 -0.113175
v 0.257294 0.000827 -0.114152
v 0.257294 0.000531 -0.252808
v 0.257294 0.001400 -0.301750
v 0.257294 0.001909 -0.274630
v 0.257294 -0.001837 -0.348727
v 0.257294 -0.001388 -0.358516
v 0.257294 -0.001783 -0.407961
v 0.257294 -0.002275 -0.441328
v 0.589765 -0.019077 0.005461
v 0.589765 -0.019077 -0.439048
v 0.256219 -0.019080 0.005461
v 0.256219 -0.019081 -0.037374
v 0.256219 -0.019084 -0.439048
vn -0.0000 -1.0000 -0.0000
vn 0.0543 0.9982 -0.0271
vn 0.0735 0.9972 -0.0167
vn -0.0826 0.9965 0.0099
vn -0.0798 0.9968 -0.0000
vn -0.0493 0.9987 0.0098
vn 0.0560 0.9984 -0.0094
vn 0.0338 0.9992 -0.0225
vn 0.0606 0.9980 0.0160
vn -0.0054 0.9999 0.0089
vn -0.0176 0.9993 0.0325
vn -0.0056 0.9976 0.0697
vn 0.0016 0.9999 0.0102
vn 0.0436 0.9981 -0.0426
vn -0.0178 0.9998 -0.0046
vn 0.0119 0.9995 -0.0280
vn 0.0360 0.9994 -0.0011
vn 0.0067 1.0000 -0.0051
vn -0.0019 1.0000 -0.0043
vn -0.0005 0.9999 -0.0118
vn 0.0028 1.0000 0.0031
vn 0.0255 0.9992 -0.0316
vn 0.0195 0.9995 0.0265
vn -0.0007 0.9999 0.0143
vn -0.0042 1.0000 -0.0004
vn 0.0382 0.9992 -0.0125
vn 0.0086 1.0000 -0.0042
vn 0.0571 0.9983 -0.0100
vn -0.0135 0.9996 0.0263
vn 0.0284 0.9996 0.0095
vn -0.0450 0.9989 0.0116
vn -0.1390 0.9897 -0.0354
vn -0.1599 0.9871 -0.0007
vn 0.0034 0.9999 -0.0099
vn 0.0012 1.0000 -0.0008
vn -0.0644 0.9978 0.0136
vn 0.0018 0.9999 0.0123
vn 0.0573 0.9964 0.0629
vn 0.0125 0.9999 -0.0038
vn 0.0118 0.9997 0.0215
vn 0.0202 0.9998 0.0084
vn 0.0101 0.9999 0.0001
vn 0.0143 0.9989 0.0447
vn -0.0089 0.9999 -0.0105
vn 0.0301 0.9992 0.0251
vn -0.0061 0.9998 0.0179
vn 0.0345 0.9994 0.0076
vn 0.0566 0.9978 0.0354
vn 0.0302 0.9995 0.0047
vn 0.0002 0.9984 -0.0572
vn 0.0131 0.9982 -0.0587
vn -0.0011 1.0000 -0.0072
vn -0.0059 0.9984 -0.0567
vn 0.0020 0.9958 -0.0917
vn -0.0356 0.9992 -0.0192
vn -0.0142 0.9999 -0.0048
vn 0.0738 0.9955 -0.0600
vn -0.0191 0.9987 0.0479
vn -0.0378 0.9960 -0.0815
vn -0.0690 0.9954 0.0668
vn -0.1265 0.9907 -0.0507
vn 0.0342 0.9994 0.0027
vn -0.0111 0.9999 -0.0030
vn 0.0166 0.9999 0.0003
vn 0.0455 0.9989 0.0123
vn -0.0259 0.9993 -0.0251
vn -0.0421 0.9987 -0.0298
vn 0.0233 0.9993 -0.0304
vn -0.0000 0.9998 -0.0221
vn -0.0045 0.9994 -0.0343
vn 0.0146 0.9981 0.0599
vn -0.0099 0.9988 0.0484
vn 0.0209 0.9993 -0.0297
vn 0.0170 0.9997 -0.0175
vn -0.0156 0.9988 -0.0460
vn 0.0574 0.9983 0.0025
vn -0.0022 0.9996 -0.0283
vn 0.0088 0.9998 0.0186
vn 0.0320 0.9993 -0.0191
vn 0.0180 0.9998 -0.0071
vn 0.0527 0.9985 -0.0160
vn -0.0258 0.9995 0.0185
vn 0.0187 0.9997 -0.0163
vn 0.0407 0.9986 -0.0348
vn -0.0071 0.9989 0.0470
vn 0.0349 0.9981 -0.0504
vn -0.0028 0.9992 -0.0393
vn -0.0135 0.9998 -0.0133
vn -0.1991 0.9583 -0.2052
vn -0.1694 0.9799 -0.1057
vn -0.0723 0.9973 -0.0138
vn -0.0771 0.9959 0.0480
vn -0.0204 0.9989 -0.0426
vn 0.0197 0.9995 -0.0248
vn 0.0105 0.9989 0.0447
vn 0.0389 0.9989 -0.0264
vn 0.0109 0.9999 -0.0021
vn 0.0689 0.9974 0.0227
vn 0.0493 0.9988 -0.0027
vn 0.0199 0.9986 0.0497
vn -0.0272 0.9974 0.0661
vn -0.0092 0.9764 0.2160
vn 0.0463 0.9815 0.1856
vn -0.0658 0.9975 -0.0264
vn 0.1110 0.9936 0.0224
vn -0.0255 0.9985 -0.0475
vn 0.2720 0.9485 0.1624
vn 0.2274 0.9678 0.1081
vn -0.0868 0.9959 -0.0243
vn -0.0763 0.9970 -0.0088
vn -0.0195 0.9998 -0.0002
vn -0.0022 0.9997 0.0255
vn 0.1250 0.9431 0.3080
vn -0.0048 0.9828 0.1846
vn -0.0731 0.9972 0.0162
vn -0.0319 0.9990 -0.0312
vn 0.0354 0.9994 0.0041
vn 0.0453 0.9987 -0.0238
vn -0.0757 0.9966 -0.0310
vn -0.0432 0.9965 -0.0714
vn -0.0420 0.9762 -0.2126
vn -0.1162 0.9906 -0.0727
vn -0.2079 0.9705 -0.1225
vn 0.0514 0.9986 -0.0101
vn 0.0370 0.9984 -0.0431
vn 0.0536 0.9969 -0.0574
vn 0.0425 0.9978 -0.0513
vn -0.0274 0.9981 -0.0547
vn -0.0625 0.9914 -0.1147
vn -0.0155 0.9999 -0.0005
vn 0.0343 0.9967 -0.0739
vn 0.0341 0.9938 -0.1062
vn 0.0916 0.9956 -0.0188
vn 0.0874 0.9961 0.0143
vn -0.0181 0.9874 0.1574
vn 0.1995 0.9639 0.1765
vn -0.1339 0.9909 -0.0146
vn 0.0652 0.9978 0.0097
vn -0.0468 0.9791 0.1980
vn -0.1043 0.9945 0.0043
vn -0.0326 0.9959 -0.0839
vn -0.0007 0.9968 -0.0804
vn -0.0672 0.9932 -0.0952
vn -0.0465 0.9971 0.0604
vn 0.0328 0.9986 -0.0424
vn -0.0434 0.9989 0.0151
vn -0.0149 0.9982 -0.0583
vn -0.0590 0.9977 -0.0322
vn -0.1083 0.9940 -0.0167
vn -0.0305 0.9986 -0.0429
vn 0.0478 0.9968 0.0635
vn 0.0720 0.9937 -0.0864
vn 0.0441 0.9951 -0.0880
vn 0.1031 0.9947 -0.0024
vn -0.0048 0.9922 -0.1244
vn 0.0132 0.9937 -0.1110
vn -0.0000 1.0000 -0.0000
vn 1.0000 -0.0000 -0.0000
vn -0.0000 -0.0000 -1.0000
vn -1.0000 -0.0000 -0.0000
vn -0.0000 -0.0000 1.0000
vt 0.000000 0.000000
vt 0.638288 0.120014
vt 0.637192 0.103652
vt 0.625386 0.102410
vt 0.625381 0.110699
vt 0.650605 0.278933
vt 0.625259 0.278111
vt 0.625235 0.306047
vt 0.627689 0.310212
vt 0.653166 0.249775
vt 0.625279 0.238450
vt 0.625275 0.255435
vt 0.694288 0.392191
vt 0.678496 0.410928
vt 0.706308 0.410942
vt 0.758637 0.387520
vt 0.732200 0.363000
vt 0.731275 0.406937
vt 0.732668 0.410967
vt 0.756510 0.410980
vt 0.856838 0.301069
vt 0.878752 0.338193
vt 0.888733 0.304992
vt 0.841180 0.275005
vt 0.797678 0.290947
vt 0.860265 0.355840
vt 0.802398 0.335255
vt 0.717119 0.307631
vt 0.682362 0.308845
vt 0.703004 0.351150
vt 0.730888 0.410965
vt 0.910268 0.293911
vt 0.910280 0.275350
vt 0.894940 0.265590
vt 0.669897 0.388030
vt 0.658882 0.342371
vt 0.642775 0.347600
vt 0.626211 0.338138
vt 0.634613 0.377899
vt 0.794724 0.266143
vt 0.767035 0.329029
vt 0.764553 0.348857
vt 0.625221 0.338824
vt 0.625199 0.374479
vt 0.628036 0.410883
vt 0.646584 0.410897
vt 0.625190 0.382833
vt 0.625177 0.410882
vt 0.793391 0.360972
vt 0.884798 0.411082
vt 0.886620 0.411083
vt 0.746613 0.253406
vt 0.792213 0.411000
vt 0.817800 0.411032
vt 0.910270 0.326280
vt 0.910272 0.315414
vt 0.777502 0.410994
vt 0.681788 0.339965
vt 0.897340 0.411092
vt 0.910140 0.404258
vt 0.910185 0.377220
vt 0.722776 0.253409
vt 0.764878 0.207076
vt 0.787948 0.146952
vt 0.728708 0.191103
vt 0.709074 0.153149
vt 0.701360 0.103878
vt 0.672199 0.126287
vt 0.697288 0.075014
vt 0.761086 0.053351
vt 0.747024 0.032328
vt 0.729544 0.032317
vt 0.749494 0.107719
vt 0.798282 0.173359
vt 0.775924 0.120351
vt 0.773682 0.085880
vt 0.809499 0.131747
vt 0.784579 0.036668
vt 0.842192 0.126596
vt 0.856650 0.227102
vt 0.826469 0.233842
vt 0.798478 0.213585
vt 0.868484 0.174821
vt 0.878581 0.092594
vt 0.878724 0.056074
vt 0.866886 0.075759
vt 0.889080 0.130105
vt 0.898308 0.111254
vt 0.910428 0.124555
vt 0.910441 0.116037
vt 0.910459 0.087648
vt 0.910480 0.059144
vt 0.891419 0.174519
vt 0.810357 0.038403
vt 0.844937 0.037097
vt 0.663084 0.186391
vt 0.710718 0.032300
vt 0.698316 0.032296
vt 0.658363 0.079796
vt 0.676049 0.032290
vt 0.673063 0.032288
vt 0.844318 0.032392
vt 0.823640 0.032379
vt 0.813829 0.032367
vt 0.792526 0.032374
vt 0.785324 0.032372
vt 0.639345 0.032269
vt 0.634600 0.032269
vt 0.632639 0.038841
vt 0.626293 0.032260
vt 0.894584 0.203136
vt 0.895551 0.246655
vt 0.910330 0.234310
vt 0.910306 0.230345
vt 0.910297 0.208001
vt 0.685292 0.204924
vt 0.701331 0.230361
vt 0.677681 0.249212
vt 0.625416 0.060525
vt 0.910373 0.148904
vt 0.910401 0.128736
vt 0.766501 0.032334
vt 0.781744 0.032366
vt 0.625315 0.191960
vt 0.625308 0.199927
vt 0.625307 0.201734
vt 0.625302 0.207416
vt 0.910285 0.257764
vt 0.910301 0.247819
vt 0.890342 0.037661
vt 0.898359 0.032434
vt 0.888767 0.032427
vt 0.625340 0.150509
vt 0.625322 0.173484
vt 0.872842 0.032421
vt 0.644891 0.032266
vt 0.625437 0.032259
vt 0.678798 0.032291
vt 0.852849 0.032401
vt 0.910355 0.162324
vt 0.910326 0.195442
vt 0.910368 0.180951
vt 0.910257 0.348539
vt 0.910468 0.051139
vt 0.910500 0.032438
vt 0.657231 0.410905
vt 0.843103 0.411040
vt 0.857892 0.411053
vt 0.657931 0.410906
vt 0.670824 0.410924
vt 0.910143 0.411097
vt 0.770185 0.410993
vt 0.625221 0.337471
vt 0.625221 0.338065
vt 0.625233 0.309411
vt 0.625233 0.310238
s 0
usemtl Material.010
f 3/1/1 1/1/1 4/1/1 5/1/1 2/1/1
s 1
f 8/2/2 9/3/3 160/4/4 159/5/5
f 10/6/6 143/7/7 144/8/8 7/9/9
f 10/6/6 11/10/10 141/11/11 142/12/12
f 13/13/13 135/14/14 134/15/15
f 14/16/16 15/17/17 16/18/18
f 16/18/18 132/19/19 129/20/20 14/16/16
f 17/21/21 18/22/22 19/23/23
f 17/21/21 21/24/24 22/25/25
f 17/21/21 12/26/26 18/22/22
f 22/25/25 23/27/27 12/26/26
f 24/28/28 25/29/29 26/30/30
f 16/18/18 13/13/13 134/15/15 133/31/31
f 19/23/23 101/32/32 102/33/33 28/34/34
f 27/35/35 29/36/36 30/37/37
f 27/35/35 13/13/13 26/30/30
f 30/37/37 6/38/38 31/39/39
f 22/25/25 32/40/40 33/41/41
f 14/16/16 34/42/42 15/17/17
f 23/27/27 22/25/25 33/41/41
f 6/38/38 151/43/43 150/44/44 31/39/39
f 27/35/35 31/39/39 138/45/45 139/46/46
f 31/39/39 148/47/47 149/48/48 138/45/45
f 22/25/25 21/24/24 32/40/40
f 10/6/6 30/37/37 29/36/36
f 34/42/42 14/16/16 20/49/49
f 19/23/23 28/34/34 17/21/21
f 33/41/41 24/28/28 15/17/17
f 24/28/28 26/30/30 15/17/17
f 12/26/26 17/21/21 22/25/25
f 33/41/41 34/42/42 20/49/49
f 18/22/22 12/26/26 126/50/50 123/51/51
f 35/52/52 33/41/41 32/40/40
f 27/35/35 30/37/37 31/39/39
f 20/49/49 131/53/53 125/54/54
f 18/22/22 99/55/55 100/56/56 19/23/23
f 14/16/16 130/57/57 131/53/53 20/49/49
f 15/17/17 26/30/30 16/18/18
f 26/30/30 29/36/36 27/35/35
f 29/36/36 36/58/58 25/29/29
f 23/27/27 33/41/41 20/49/49
f 29/36/36 25/29/29 10/6/6
f 26/30/30 36/58/58 29/36/36
f 18/22/22 123/51/51 122/59/59 96/60/60 97/61/61
f 26/30/30 25/29/29 36/58/58
f 28/34/34 21/24/24 17/21/21
f 16/18/18 26/30/30 13/13/13
f 6/38/38 30/37/37 7/9/9
f 23/27/27 20/49/49 12/26/26
f 15/17/17 34/42/42 33/41/41
f 33/41/41 35/52/52 37/62/62
f 37/62/62 24/28/28 33/41/41
f 38/63/63 39/64/64 40/65/65
f 41/66/66 42/67/67 43/68/68
f 44/69/69 45/70/70 85/71/71 86/72/72
f 46/73/73 40/65/65 39/64/64
f 47/74/74 39/64/64 38/63/63
f 46/73/73 48/75/75 49/76/76
f 40/65/65 46/73/73 41/66/66
f 46/73/73 45/70/70 44/69/69
f 45/70/70 46/73/73 49/76/76
f 50/77/77 39/64/64 47/74/74
f 42/67/67 46/73/73 44/69/69
f 46/73/73 42/67/67 41/66/66
f 51/78/78 45/70/70 49/76/76
f 46/73/73 39/64/64 48/75/75
f 39/64/64 50/77/77 48/75/75
f 52/79/79 50/77/77 47/74/74
f 21/24/24 53/80/80 54/81/81
f 47/74/74 38/63/63 55/82/82
f 38/63/63 37/62/62 35/52/52
f 56/83/83 52/79/79 47/74/74
f 54/81/81 47/74/74 55/82/82
f 53/80/80 56/83/83 47/74/74
f 38/63/63 35/52/52 32/40/40
f 54/81/81 53/80/80 47/74/74
f 32/40/40 55/82/82 38/63/63
f 32/40/40 21/24/24 55/82/82
f 54/81/81 55/82/82 21/24/24
f 59/84/84 52/79/79 56/83/83
f 59/84/84 58/85/85 60/86/86
f 61/87/87 62/88/88 59/84/84
f 61/87/87 113/89/89 114/90/90 62/88/88
f 58/85/85 62/88/88 115/91/91 116/92/92
f 56/83/83 63/93/93 61/87/87
f 61/87/87 59/84/84 56/83/83
f 62/88/88 58/85/85 59/84/84
f 64/94/94 48/75/75 50/77/77
f 60/86/86 58/85/85 65/95/95
f 64/94/94 60/86/86 65/95/95
f 51/78/78 49/76/76 64/94/94
f 64/94/94 50/77/77 52/79/79
f 64/94/94 49/76/76 48/75/75
f 64/94/94 59/84/84 60/86/86
f 64/94/94 52/79/79 59/84/84
f 66/96/96 41/66/66 43/68/68
f 44/69/69 87/97/97 88/98/98
f 67/99/99 44/69/69 92/100/100 91/101/101
f 67/99/99 43/68/68 42/67/67
f 42/67/67 44/69/69 67/99/99
f 64/94/94 65/95/95 78/102/102 81/103/103
f 51/78/78 64/94/94 82/104/104 83/105/105
f 51/78/78 83/105/105 84/106/106
f 9/3/3 93/107/107 94/108/108 68/109/109
f 68/109/109 94/108/108 95/110/110
f 53/80/80 69/111/111 56/83/83
f 70/112/112 105/113/113 106/114/114
f 28/34/34 70/112/112 53/80/80
f 53/80/80 21/24/24 28/34/34
f 69/111/111 70/112/112 106/114/114 107/115/115
f 53/80/80 70/112/112 69/111/111
f 71/116/116 72/117/117 41/66/66
f 40/65/65 37/62/62 38/63/63
f 72/117/117 37/62/62 40/65/65
f 72/117/117 40/65/65 41/66/66
f 73/118/118 11/10/10 24/28/28
f 25/29/29 24/28/28 11/10/10
f 11/10/10 10/6/6 25/29/29
f 10/6/6 7/9/9 30/37/37
f 68/109/109 161/119/119 160/4/4 9/3/3
f 67/99/99 9/3/3 43/68/68
f 8/2/2 43/68/68 9/3/3
f 63/93/93 111/120/120 112/121/121 61/87/87
f 63/93/93 56/83/83 69/111/111
f 45/70/70 80/122/122 85/71/71
f 51/78/78 79/123/123 80/122/122 45/70/70
f 66/96/96 73/118/118 71/116/116
f 71/116/116 41/66/66 66/96/96
f 66/96/96 156/124/124 145/125/125 146/126/126 73/118/118
f 11/10/10 73/118/118 146/126/126 147/127/127
f 28/34/34 103/128/128 104/129/129 70/112/112
f 57/130/130 74/131/131 75/132/132
f 66/96/96 8/2/2 157/133/133 158/134/134
f 66/96/96 43/68/68 8/2/2
f 57/130/130 75/132/132 76/135/135
f 37/62/62 73/118/118 24/28/28
f 73/118/118 37/62/62 72/117/117
f 72/117/117 71/116/116 73/118/118
f 91/101/101 90/136/136 67/99/99
f 81/103/103 82/104/104 64/94/94
f 95/110/110 162/137/137 161/119/119 68/109/109
f 86/72/72 87/97/97 44/69/69
f 88/98/98 89/138/138 92/100/100 44/69/69
f 84/106/106 79/123/123 51/78/78
f 77/139/139 78/102/102 65/95/95 58/85/85
f 90/136/136 93/107/107 9/3/3 67/99/99
f 76/135/135 77/139/139 58/85/85 57/130/130
f 110/140/140 111/120/120 63/93/93
f 107/115/115 108/141/141 63/93/93 69/111/111
f 109/142/142 110/140/140 63/93/93
f 104/129/129 105/113/113 70/112/112
f 108/141/141 109/142/142 63/93/93
f 98/143/143 99/55/55 18/22/22
f 117/144/144 118/145/145 74/131/131 57/130/130
f 114/90/90 115/91/91 62/88/88
f 112/121/121 113/89/89 61/87/87
f 116/92/92 117/144/144 57/130/130 58/85/85
f 102/33/33 103/128/128 28/34/34
f 100/56/56 101/32/32 19/23/23
f 97/61/61 98/143/143 18/22/22
f 139/46/46 140/146/146 27/35/35
f 124/147/147 127/148/148 12/26/26 20/49/49
f 140/146/146 136/149/149 137/150/150 27/35/35
f 125/54/54 124/147/147 20/49/49
f 137/150/150 135/14/14 13/13/13 27/35/35
f 122/59/59 121/151/151 96/60/60
f 129/20/20 128/152/152 14/16/16
f 128/152/152 130/57/57 14/16/16
f 133/31/31 132/19/19 16/18/18
f 127/148/148 126/50/50 12/26/26
f 158/134/134 156/124/124 66/96/96
f 153/153/153 152/154/154 6/38/38
f 159/5/5 157/133/133 8/2/2
f 155/155/155 154/156/156 7/9/9
f 150/44/44 148/47/47 31/39/39
f 147/127/127 141/11/11 11/10/10
f 154/156/156 153/153/153 6/38/38 7/9/9
f 144/8/8 155/155/155 7/9/9
f 152/154/154 151/43/43 6/38/38
f 142/12/12 143/7/7 10/6/6
s 0
f 167/1/157 166/1/157 165/1/157 163/1/157 164/1/157
f 2/1/158 5/1/158 165/1/158 166/1/158
f 5/1/159 4/1/159 163/1/159 165/1/159
f 3/1/158 2/1/158 166/1/158 167/1/158
f 4/1/160 1/1/160 164/1/160 163/1/160
f 1/1/161 3/1/161 167/1/161 164/1/161
l 120 119
