# Blender 4.3.2
# www.blender.org
mtllib painting6-2.mtl
g Object.006_Plane.010
v 0.589753 -0.013336 0.102440
v 0.589753 -0.013334 0.451181
v 0.589753 -0.013336 0.019210
v 0.255552 -0.013333 0.451181
v 0.255552 -0.013336 0.216269
v 0.255552 -0.013338 0.019210
v 0.593586 0.000171 0.189871
v 0.446542 0.000490 0.151295
v 0.398955 0.002646 0.159874
v 0.444117 0.003634 0.181120
v 0.561163 0.003571 0.108025
v 0.563557 0.001899 0.057582
v 0.482420 -0.000429 0.197672
v 0.418312 0.005449 0.225839
v 0.484778 0.000415 0.227640
v 0.547077 0.003348 0.173246
v 0.567067 0.000388 0.033889
v 0.531740 -0.001213 0.044331
v 0.527578 0.002606 0.243273
v 0.480301 0.002249 0.134202
v 0.444188 0.000679 0.278394
v 0.419462 -0.000038 0.318324
v 0.433403 0.001409 0.353105
v 0.398955 0.002646 0.159874
v 0.335932 0.005177 0.131446
v 0.444117 0.003634 0.181120
v 0.524653 0.002184 0.393503
v 0.592477 -0.001110 0.385277
v 0.591674 0.001040 0.318114
v 0.546902 -0.002750 0.326979
v 0.578299 0.002519 0.259169
v 0.504772 -0.000279 0.334667
v 0.500724 -0.000954 0.377338
v 0.406973 -0.001014 0.091989
v 0.369210 0.003214 0.120147
v 0.301791 0.001652 0.078531
v 0.312054 -0.000187 0.037749
v 0.378772 -0.001711 0.066842
v 0.401877 -0.000453 0.285383
v 0.382984 -0.000814 0.022737
v 0.454437 -0.001894 0.048477
v 0.450721 0.000389 0.071716
v 0.492346 -0.000195 0.073751
v 0.435121 -0.000262 0.129273
v 0.335932 0.005177 0.131446
v 0.487058 0.000133 0.031436
v 0.475161 -0.001164 0.113895
v 0.339160 0.003820 0.221648
v 0.477153 -0.001468 0.330034
v 0.270740 -0.001421 0.106076
v 0.281093 0.001717 0.158254
v 0.333243 0.000462 0.088488
v 0.573055 -0.000586 0.305992
v 0.328823 -0.002435 0.064497
v 0.282728 -0.003164 0.050733
v 0.319762 -0.000176 0.361632
v 0.322181 0.002581 0.294477
v 0.304585 0.001351 0.333280
v 0.310489 0.000222 0.387723
v 0.261726 0.001322 0.343424
v 0.279691 -0.001562 0.325429
v 0.278560 -0.000404 0.394817
v 0.256120 0.001654 0.389901
v 0.277224 0.001535 0.422327
v 0.316337 0.003337 0.415246
v 0.348396 0.001409 0.372606
v 0.260286 -0.000144 0.264821
v 0.264078 -0.000502 0.282473
v 0.314856 0.000798 0.251714
v 0.274180 -0.002067 0.214062
v 0.274180 -0.002067 0.214062
v 0.314856 0.000798 0.251714
v 0.356025 -0.001658 0.326857
v 0.398938 0.003328 0.327699
v 0.356433 0.000154 0.379608
v 0.404522 0.000147 0.371130
v 0.435068 0.001971 0.436048
v 0.405929 0.002004 0.429298
v 0.366951 0.001693 0.298822
v 0.455445 0.004744 0.431979
v 0.594157 -0.002084 0.052294
v 0.594129 0.000010 0.019416
v 0.594123 0.000509 0.447017
v 0.594122 0.000530 0.437010
v 0.594145 -0.001188 0.387022
v 0.594120 0.000676 0.314362
v 0.594121 0.000652 0.329259
v 0.594147 -0.001340 0.295695
v 0.594124 0.000405 0.272247
v 0.594111 0.001373 0.244466
v 0.594104 0.001949 0.233293
v 0.594127 0.000195 0.190062
v 0.594128 0.000105 0.187368
v 0.594136 -0.000490 0.133447
v 0.594130 -0.000075 0.117335
v 0.594145 -0.001165 0.081073
v 0.594151 -0.001668 0.062719
v 0.594157 -0.002118 0.052828
v 0.058622 -0.001974 0.468930
v 0.058622 -0.001974 0.468930
v 0.565097 -0.000660 0.450982
v 0.587089 0.001593 0.450982
v 0.554294 -0.000117 0.450982
v 0.520564 0.001436 0.450982
v 0.481989 0.004050 0.450982
v 0.594125 0.000303 0.450982
v 0.587183 0.001580 0.450982
v 0.587113 0.001591 0.450982
v 0.457708 0.004986 0.450982
v 0.448645 0.003759 0.450982
v 0.429881 0.002606 0.450982
v 0.413933 0.004751 0.450982
v 0.397763 0.005290 0.450982
v 0.366861 0.004172 0.450982
v 0.353692 0.004663 0.450982
v 0.336404 0.005950 0.450982
v 0.331799 0.005881 0.450982
v 0.326175 0.005947 0.450982
v 0.275097 0.004463 0.450982
v 0.268353 0.004022 0.450982
v 0.264753 0.004361 0.450982
v 0.594130 -0.000065 0.018057
v 0.565342 -0.000512 0.018057
v 0.505605 -0.002357 0.018057
v 0.480516 -0.000854 0.018057
v 0.560019 -0.000271 0.018057
v 0.532849 -0.001655 0.018057
v 0.424266 -0.001159 0.018057
v 0.413621 -0.001553 0.018057
v 0.429958 -0.001764 0.018057
v 0.455128 -0.002891 0.018057
v 0.389569 -0.000992 0.018057
v 0.371215 -0.001132 0.018057
v 0.347452 -0.001934 0.018057
v 0.328627 -0.001285 0.018057
v 0.380609 -0.000731 0.018057
v 0.383078 -0.001083 0.018057
v 0.262985 -0.002145 0.018057
v 0.292612 -0.001709 0.018057
v 0.300792 -0.001746 0.018057
v 0.311240 -0.000607 0.018057
v 0.255849 0.000749 0.263069
v 0.255849 0.003893 0.199034
v 0.255849 0.000213 0.264627
v 0.255849 0.002303 0.198609
v 0.255849 0.003893 0.199034
v 0.255849 0.002421 0.194858
v 0.255849 0.003647 0.180748
v 0.255849 0.003126 0.172606
v 0.255849 0.004155 0.450982
v 0.255849 0.001691 0.390954
v 0.255849 0.001640 0.390459
v 0.255849 0.001511 0.346455
v 0.255849 0.001005 0.343068
v 0.255849 0.001665 0.390063
v 0.255849 0.001579 0.354094
v 0.255849 -0.000565 0.293875
v 0.255849 -0.000353 0.282484
v 0.255849 -0.000072 0.265454
v 0.255849 0.002100 0.198555
v 0.255849 0.002100 0.198555
v 0.255849 0.002045 0.155713
v 0.255849 -0.003198 0.054254
v 0.255849 -0.001333 0.082196
v 0.255849 -0.001937 0.096547
v 0.255849 -0.003203 0.054219
v 0.255849 -0.003201 0.054174
v 0.255849 -0.003196 0.053960
v 0.255849 -0.000325 0.280974
v 0.255849 -0.001224 0.108744
v 0.255849 -0.001783 0.018057
v 0.589753 -0.019602 0.451181
v 0.589753 -0.019604 0.102440
v 0.255552 -0.019602 0.451181
v 0.589753 -0.019604 0.019210
v 0.255552 -0.019604 0.216269
v 0.255552 -0.019607 0.019210
vn -0.0000 -1.0000 -0.0000
vn 0.0196 0.9993 -0.0331
vn 0.0492 0.9974 -0.0522
vn 0.0535 0.9980 -0.0346
vn 0.0281 0.9994 -0.0188
vn 0.1181 0.9922 -0.0387
vn 0.1154 0.9925 -0.0409
vn 0.0197 0.9986 -0.0484
vn 0.0445 0.9990 -0.0054
vn 0.0171 0.9995 0.0279
vn -0.0054 0.9999 0.0094
vn 0.0296 0.9995 0.0082
vn 0.0163 0.9992 -0.0375
vn 0.0451 0.9990 -0.0069
vn 0.0889 0.9960 0.0043
vn 0.0072 0.9996 -0.0275
vn -0.0060 0.9997 -0.0234
vn -0.0176 0.9998 -0.0046
vn -0.0155 0.9991 -0.0395
vn -0.0098 0.9999 0.0107
vn -0.0428 0.9991 -0.0083
vn 0.0023 0.9997 0.0259
vn 0.0190 0.9992 -0.0363
vn 0.0385 0.9992 -0.0140
vn 0.0987 0.9950 -0.0143
vn 0.0478 0.9968 0.0635
vn -0.0690 0.9954 0.0668
vn 0.4047 0.2724 -0.8729
vn 0.0119 0.9997 -0.0204
vn 0.0319 0.9995 0.0089
vn 0.0192 0.9997 -0.0170
vn -0.0185 0.9998 -0.0080
vn 0.0292 0.9991 0.0306
vn 0.0096 0.9994 0.0331
vn 0.0014 0.9991 -0.0431
vn 0.0096 0.9997 -0.0235
vn 0.0418 0.9967 -0.0693
vn -0.0199 0.9986 -0.0489
vn -0.0362 0.9938 -0.1050
vn -0.0478 0.9988 0.0050
vn 0.0109 0.9993 0.0352
vn 0.0012 0.9996 -0.0273
vn 0.0765 0.9957 -0.0524
vn -0.0035 1.0000 -0.0050
vn 0.0100 0.9999 -0.0134
vn -0.0026 1.0000 0.0048
vn -0.0132 0.9999 -0.0040
vn 0.0189 0.9998 -0.0091
vn -0.0163 0.9997 -0.0188
vn -0.0410 0.9986 -0.0331
vn 0.0037 0.9996 -0.0285
vn -0.0180 0.9997 -0.0172
vn -0.0108 0.9992 -0.0373
vn -0.0145 0.9994 -0.0319
vn -0.0341 0.9989 0.0315
vn 0.0219 0.9997 -0.0066
vn 0.0129 0.9986 -0.0505
vn 0.1298 0.9915 0.0072
vn 0.1215 0.9913 -0.0509
vn 0.0792 0.9965 -0.0254
vn -0.0403 0.9992 -0.0066
vn -0.0105 0.9992 -0.0378
vn -0.0404 0.9978 -0.0520
vn -0.0268 0.9971 -0.0707
vn -0.0464 0.9979 0.0448
vn -0.0526 0.9985 -0.0134
vn 0.0411 0.9962 -0.0773
vn 0.0542 0.9985 -0.0094
vn 0.0711 0.9961 0.0519
vn 0.0034 0.9992 -0.0394
vn -0.0061 0.9994 0.0350
vn -0.0211 0.9998 0.0020
vn -0.0265 0.9990 -0.0350
vn 0.0137 0.9999 0.0081
vn 0.0487 0.9969 -0.0621
vn -0.0223 0.9987 -0.0455
vn 0.0298 0.9995 -0.0070
vn -0.0390 0.9992 0.0031
vn -0.0281 0.9993 0.0244
vn 0.0185 0.9998 -0.0050
vn -0.0606 0.9981 0.0141
vn -0.0042 0.9985 0.0542
vn 0.0129 0.9989 0.0448
vn 0.0022 0.9983 -0.0574
vn 0.0251 0.9996 0.0130
vn 0.0307 0.9995 0.0049
vn -0.0175 0.9996 0.0241
vn -0.0115 0.9999 -0.0073
vn -0.0149 0.9998 -0.0144
vn 0.0059 0.9988 -0.0491
vn -0.0306 0.9995 -0.0121
vn 0.0075 0.9996 -0.0267
vn 0.0188 0.9995 -0.0272
vn 0.0052 0.9969 -0.0785
vn -0.0256 0.9969 -0.0750
vn -0.0409 0.9981 -0.0457
vn 0.0434 0.9953 -0.0870
vn -0.0466 0.9928 -0.1106
vn -0.0186 0.9998 0.0117
vn -0.0089 0.9999 0.0108
vn -0.0254 0.9992 0.0305
vn -0.0250 0.9997 0.0025
vn -0.0336 0.9973 -0.0655
vn -0.1607 0.9856 -0.0520
vn -0.0149 0.9999 -0.0058
vn 0.0911 0.9942 0.0570
vn -0.0376 0.9978 0.0542
vn 0.6589 0.1945 -0.7266
vn 0.0376 0.9967 -0.0719
vn 0.0194 0.9978 -0.0639
vn 0.1379 0.9897 0.0395
vn 0.0730 0.9795 0.1877
vn 0.0617 0.9438 0.3247
vn 0.1131 0.9858 0.1242
vn -0.0245 0.9996 0.0101
vn -0.0124 0.9999 -0.0026
vn 0.0118 0.9996 -0.0241
vn -0.0028 0.9998 -0.0171
vn -0.0026 0.9995 -0.0301
vn 0.0149 0.9970 -0.0764
vn 0.0156 0.9997 0.0201
vn 0.0104 0.9990 -0.0427
vn -0.0514 0.9849 -0.1654
vn 0.1256 0.9904 -0.0574
vn 0.0730 0.9896 -0.1240
vn 0.0989 0.9949 -0.0175
vn 0.0036 0.9843 -0.1766
vn -0.1105 0.9817 -0.1553
vn -0.0007 0.9949 -0.1009
vn 0.1016 0.9935 0.0511
vn 0.0940 0.9955 -0.0110
vn 0.1855 0.9826 0.0015
vn 0.1748 0.9840 0.0329
vn -0.0306 0.9889 -0.1451
vn -0.0009 0.9876 -0.1569
vn 0.1699 0.9855 0.0043
vn -0.0961 0.9875 -0.1250
vn -0.0047 0.9981 -0.0620
vn -0.0065 0.9978 -0.0667
vn 0.0188 0.9976 -0.0671
vn -0.0219 0.9938 -0.1094
vn 0.0598 0.9950 -0.0794
vn 0.0122 0.9990 -0.0430
vn -0.0294 0.9995 -0.0095
vn 0.0775 0.9957 -0.0512
vn 0.0058 0.9992 0.0405
vn 0.0507 0.9973 0.0532
vn -0.0020 0.9994 0.0353
vn -0.0550 0.9974 0.0456
vn 0.0364 0.9937 0.1063
vn 0.0286 0.9994 -0.0175
vn 0.0107 0.9989 -0.0467
vn 0.0470 0.9988 0.0097
vn 0.0252 0.9979 -0.0604
vn 0.1515 0.9847 0.0855
vn 0.1667 0.9829 0.0786
vn 0.0297 0.9994 0.0188
vn 0.0182 0.9997 0.0187
vn -0.0000 1.0000 -0.0000
vn 1.0000 -0.0000 -0.0000
vn -0.0000 -0.0000 -1.0000
vn -1.0000 -0.0000 -0.0000
vn -0.0000 -0.0000 1.0000
vt 0.000000 0.000000
vt 0.785036 0.515878
vt 0.744710 0.523128
vt 0.782952 0.541158
vt 0.882147 0.479314
vt 0.910122 0.456478
vt 0.910141 0.440928
vt 0.884212 0.436579
vt 0.815406 0.555179
vt 0.761058 0.579032
vt 0.817383 0.580569
vt 0.870178 0.534549
vt 0.909580 0.548641
vt 0.910041 0.546521
vt 0.910081 0.500844
vt 0.887205 0.416503
vt 0.881246 0.403084
vt 0.858236 0.403059
vt 0.857279 0.425317
vt 0.853622 0.593849
vt 0.813636 0.501430
vt 0.782967 0.623537
vt 0.762001 0.657341
vt 0.773784 0.686818
vt 0.910153 0.432548
vt 0.910153 0.432095
vt 0.910140 0.404258
vt 0.545276 0.951503
vt 0.603886 0.953500
vt 0.502997 0.953500
vt 0.851058 0.721098
vt 0.908532 0.714153
vt 0.907881 0.657274
vt 0.869965 0.664734
vt 0.896580 0.607344
vt 0.834261 0.671235
vt 0.830809 0.707373
vt 0.751557 0.465611
vt 0.719533 0.489463
vt 0.662450 0.454162
vt 0.623567 0.433543
vt 0.623542 0.457222
vt 0.747125 0.629425
vt 0.791794 0.428778
vt 0.771074 0.402996
vt 0.766250 0.402996
vt 0.788623 0.448473
vt 0.731275 0.406937
vt 0.757235 0.402988
vt 0.736857 0.402976
vt 0.727685 0.444289
vt 0.823886 0.450219
vt 0.775377 0.497213
vt 0.691328 0.499024
vt 0.819430 0.414375
vt 0.809309 0.484207
vt 0.694015 0.575424
vt 0.810872 0.667287
vt 0.903918 0.769820
vt 0.903938 0.769820
vt 0.909889 0.757984
vt 0.909944 0.715631
vt 0.644870 0.521679
vt 0.909986 0.585433
vt 0.910038 0.548804
vt 0.689094 0.462609
vt 0.892123 0.646985
vt 0.636143 0.477458
vt 0.885298 0.769794
vt 0.910000 0.638272
vt 0.909987 0.618420
vt 0.685376 0.442268
vt 0.671176 0.419613
vt 0.623536 0.469375
vt 0.646338 0.430577
vt 0.909949 0.666714
vt 0.835159 0.403039
vt 0.813900 0.403033
vt 0.685231 0.402937
vt 0.670500 0.402930
vt 0.721309 0.402964
vt 0.701182 0.402945
vt 0.661654 0.402917
vt 0.654725 0.402912
vt 0.623567 0.433475
vt 0.623567 0.433513
vt 0.729266 0.402972
vt 0.677518 0.693963
vt 0.679594 0.637097
vt 0.664671 0.669947
vt 0.669645 0.716060
vt 0.628358 0.678513
vt 0.643598 0.663265
vt 0.642596 0.722046
vt 0.623581 0.717880
vt 0.641440 0.745359
vt 0.674571 0.739395
vt 0.701761 0.703285
vt 0.633899 0.769639
vt 0.639610 0.769646
vt 0.627190 0.611924
vt 0.630394 0.626876
vt 0.673422 0.600860
vt 0.623416 0.636528
vt 0.623381 0.678206
vt 0.623351 0.718353
vt 0.623350 0.718773
vt 0.623351 0.718017
vt 0.638998 0.568926
vt 0.631843 0.897562
vt 0.652352 0.900765
vt 0.652328 0.900967
vt 0.652140 0.902556
vt 0.584906 0.902556
vt 0.623485 0.519514
vt 0.623471 0.533829
vt 0.623464 0.540729
vt 0.623429 0.610442
vt 0.623430 0.611759
vt 0.623431 0.612457
vt 0.708263 0.664521
vt 0.744595 0.665289
vt 0.708571 0.709214
vt 0.749313 0.702062
vt 0.775144 0.757079
vt 0.750464 0.751345
vt 0.717521 0.640799
vt 0.792397 0.753661
vt 0.794302 0.769760
vt 0.814875 0.769770
vt 0.757220 0.769732
vt 0.770738 0.769730
vt 0.687638 0.769688
vt 0.691538 0.769692
vt 0.909958 0.654095
vt 0.909988 0.594893
vt 0.910084 0.487199
vt 0.909883 0.766459
vt 0.903998 0.769820
vt 0.682873 0.769685
vt 0.743520 0.769726
vt 0.909884 0.769817
vt 0.786629 0.769748
vt 0.876144 0.769791
vt 0.706188 0.769696
vt 0.717347 0.769701
vt 0.847564 0.769779
vt 0.630847 0.769639
vt 0.885757 0.403086
vt 0.792401 0.403005
vt 0.731359 0.402971
vt 0.629629 0.402893
vt 0.623582 0.402890
vt 0.623567 0.433293
vt 0.910142 0.403106
vt 0.623453 0.556219
vt 0.623305 0.769633
vt 0.623377 0.681078
vt 0.623372 0.687549
vt 0.623526 0.479710
vt 0.623461 0.552673
vt 0.623460 0.555802
vt 0.623423 0.625602
vt 0.623422 0.626881
s 0
usemtl Material.013
f 3/1/1 1/1/1 2/1/1 4/1/1 5/1/1 6/1/1
s 1
f 8/2/2 9/3/3 10/4/4
f 11/5/5 96/6/6 97/7/7 12/8/8
f 13/9/9 14/10/10 15/11/11
f 16/12/12 7/13/13 93/14/14 94/15/15
f 17/16/16 126/17/17 127/18/18 18/19/19
f 19/20/20 20/21/21 15/11/11
f 21/22/22 22/23/23 23/24/24
f 17/16/16 98/25/25 81/26/26 82/27/27
f 24/28/28 25/29/28 26/30/28
f 27/31/29 28/32/30 29/33/31
f 30/34/32 31/35/33 32/36/34
f 17/16/16 18/19/19 12/8/8
f 23/24/24 33/37/35 32/36/34
f 9/3/3 34/38/36 35/39/37
f 36/40/38 163/41/39 164/42/40
f 16/12/12 20/21/21 19/20/20
f 39/43/41 22/23/23 21/22/22
f 41/44/42 130/45/43 128/46/44 42/47/45
f 40/48/46 34/38/36 129/49/47 132/50/48
f 10/4/4 14/10/10 13/9/9
f 38/51/49 34/38/36 40/48/46
f 43/52/50 20/21/21 11/5/5
f 34/38/36 44/53/51 42/47/45
f 10/4/4 45/54/52 14/10/10
f 46/55/53 43/52/50 18/19/19
f 43/52/50 47/56/54 20/21/21
f 11/5/5 12/8/8 43/52/50
f 13/9/9 8/2/2 10/4/4
f 14/10/10 39/43/41 21/22/22
f 45/54/52 48/57/55 14/10/10
f 21/22/22 49/58/56 32/36/34
f 17/16/16 12/8/8 97/7/7 98/25/25
f 13/9/9 20/21/21 8/2/2
f 48/57/55 39/43/41 14/10/10
f 43/52/50 46/55/53 41/44/42
f 12/8/8 18/19/19 43/52/50
f 28/32/30 102/59/57 108/60/58 84/61/59 85/62/60
f 45/54/52 51/63/61 48/57/55
f 31/35/33 91/64/62 92/65/63 7/13/13
f 35/39/37 52/66/64 45/54/52
f 35/39/37 45/54/52 9/3/3
f 34/38/36 9/3/3 44/53/51
f 7/13/13 19/20/20 31/35/33
f 52/66/64 51/63/61 45/54/52
f 30/34/32 29/33/31 53/67/65
f 35/39/37 34/38/36 38/51/49
f 16/12/12 19/20/20 7/13/13
f 34/38/36 42/47/45 128/46/44 129/49/47
f 41/44/42 42/47/45 47/56/54
f 41/44/42 47/56/54 43/52/50
f 49/58/56 23/24/24 32/36/34
f 11/5/5 20/21/21 16/12/12
f 23/24/24 49/58/56 21/22/22
f 51/63/61 52/66/64 50/68/66
f 28/32/30 101/69/67 102/59/57
f 31/35/33 53/67/65 88/70/68 89/71/69
f 33/37/35 27/31/29 30/34/32
f 54/72/70 38/51/49 37/73/71
f 32/36/34 33/37/35 30/34/32
f 44/53/51 47/56/54 42/47/45
f 30/34/32 27/31/29 29/33/31
f 14/10/10 21/22/22 15/11/11
f 50/68/66 36/40/38 164/42/40 165/74/72
f 38/51/49 54/72/70 52/66/64
f 30/34/32 53/67/65 31/35/33
f 37/73/71 55/75/73 54/72/70
f 52/66/64 35/39/37 38/51/49
f 13/9/9 15/11/11 20/21/21
f 36/40/38 52/66/64 54/72/70
f 29/33/31 28/32/30 85/62/60 87/76/74
f 19/20/20 32/36/34 31/35/33
f 44/53/51 20/21/21 47/56/54
f 15/11/11 21/22/22 19/20/20
f 36/40/38 54/72/70 55/75/73
f 32/36/34 19/20/20 21/22/22
f 9/3/3 8/2/2 44/53/51
f 20/21/21 44/53/51 8/2/2
f 36/40/38 50/68/66 52/66/64
f 18/19/19 124/77/75 125/78/76 46/55/53
f 37/73/71 135/79/77 141/80/78
f 40/48/46 133/81/79 134/82/80 38/51/49
f 55/75/73 37/73/71 141/80/78 140/83/81
f 55/75/73 140/83/81 139/84/82 167/85/83 166/86/84
f 18/19/19 127/18/18 124/77/75
f 40/48/46 136/87/85 133/81/79
f 56/88/86 57/89/87 58/90/88
f 56/88/86 58/90/88 59/91/89
f 60/92/90 58/90/88 61/93/91
f 59/91/89 58/90/88 60/92/90
f 59/91/89 60/92/90 62/94/92
f 63/95/93 62/94/92 60/92/90
f 63/95/93 64/96/94 62/94/92
f 59/91/89 62/94/92 65/97/95
f 65/97/95 66/98/96 59/91/89
f 65/97/95 64/96/94 120/99/97 119/100/98
f 65/97/95 62/94/92 64/96/94
f 67/101/99 68/102/100 57/89/87
f 69/103/101 67/101/99 57/89/87
f 58/90/88 57/89/87 61/93/91
f 68/102/100 61/93/91 57/89/87
f 68/102/100 157/104/102 154/105/103 60/92/90
f 63/95/93 152/106/104 151/107/105
f 63/95/93 155/108/106 152/106/104
f 68/102/100 60/92/90 61/93/91
f 48/57/55 51/63/61 70/109/107
f 71/110/108 160/111/108 145/112/108 146/113/108 72/114/108
f 48/57/55 70/109/107 69/103/101
f 50/68/66 162/115/109 149/116/110 148/117/111 51/63/61
f 69/103/101 142/118/112 144/119/113 159/120/114 67/101/99
f 73/121/115 66/98/96 74/122/116
f 66/98/96 75/123/117 74/122/116
f 76/124/118 74/122/116 75/123/117
f 23/24/24 74/122/116 77/125/119
f 77/125/119 74/122/116 76/124/118
f 66/98/96 73/121/115 56/88/86
f 22/23/23 39/43/41 74/122/116
f 77/125/119 76/124/118 78/126/120
f 65/97/95 75/123/117 66/98/96
f 66/98/96 56/88/86 59/91/89
f 39/43/41 48/57/55 79/127/121
f 69/103/101 57/89/87 48/57/55
f 79/127/121 57/89/87 73/121/115
f 79/127/121 74/122/116 39/43/41
f 79/127/121 73/121/115 74/122/116
f 48/57/55 57/89/87 79/127/121
f 56/88/86 73/121/115 57/89/87
f 33/37/35 77/125/119 80/128/122
f 23/24/24 77/125/119 33/37/35
f 23/24/24 22/23/23 74/122/116
f 27/31/29 33/37/35 80/128/122
f 80/128/122 109/129/123 105/130/124
f 77/125/119 112/131/125 111/132/126
f 76/124/118 75/123/117 117/133/127 116/134/128
f 86/135/129 88/70/68 53/67/65 29/33/31
f 87/76/74 86/135/129 29/33/31
f 89/71/69 90/136/130 31/35/33
f 90/136/130 91/64/62 31/35/33
f 94/15/15 95/137/131 11/5/5 16/12/12
f 92/65/63 93/14/14 7/13/13
f 83/138/132 84/61/59 108/60/58 107/139/133
f 95/137/131 96/6/6 11/5/5
f 118/140/134 117/133/127 75/123/117 65/97/95
f 119/100/98 118/140/134 65/97/95
f 113/141/135 112/131/125 77/125/119 78/126/120
f 107/139/133 106/142/136 83/138/132
f 110/143/137 109/129/123 80/128/122 77/125/119
f 103/144/138 101/69/67 28/32/30 27/31/29
f 115/145/139 114/146/140 78/126/120 76/124/118
f 111/132/126 110/143/137 77/125/119
f 104/147/141 103/144/138 27/31/29 80/128/122
f 121/148/142 120/99/97 64/96/94 63/95/93
f 105/130/124 104/147/141 80/128/122
f 114/146/140 113/141/135 78/126/120
f 116/134/128 115/145/139 76/124/118
f 123/149/143 126/17/17 17/16/16
f 125/78/76 131/150/144 41/44/42 46/55/53
f 132/50/48 137/151/145 40/48/46
f 137/151/145 136/87/85 40/48/46
f 134/82/80 135/79/77 37/73/71 38/51/49
f 138/152/146 171/153/147 168/154/148
f 122/155/149 123/149/143 17/16/16 82/27/27
f 131/150/144 130/45/43 41/44/42
f 139/84/82 138/152/146 168/154/148 167/85/83
f 166/86/84 163/41/39 36/40/38 55/75/73
f 143/156/150 142/118/112 69/103/101
f 151/107/105 150/157/151 121/148/142 63/95/93
f 153/158/152 156/159/153 60/92/90
f 165/74/72 170/160/154 50/68/66
f 156/159/153 155/108/106 63/95/93 60/92/90
f 148/117/111 147/161/155 161/162/156 70/109/107 51/63/61
f 169/163/157 158/164/158 157/104/102 68/102/100
f 159/120/114 169/163/157 68/102/100 67/101/99
f 154/105/103 153/158/152 60/92/90
f 170/160/154 162/115/109 50/68/66
s 0
f 175/1/159 177/1/159 176/1/159 174/1/159 172/1/159 173/1/159
f 5/1/160 4/1/160 174/1/160 176/1/160
f 4/1/161 2/1/161 172/1/161 174/1/161
f 6/1/160 5/1/160 176/1/160 177/1/160
f 1/1/162 3/1/162 175/1/162 173/1/162
f 2/1/162 1/1/162 173/1/162 172/1/162
f 3/1/163 6/1/163 177/1/163 175/1/163
l 100 99
