# Blender 4.3.2
# www.blender.org
mtllib painting1-2.mtl
g Object.001_Object.007
v -0.194272 0.002513 -0.050516
v -0.307576 -0.001580 -0.307183
v -0.361872 -0.000271 -0.319716
v -0.331206 0.002366 -0.263766
v -0.339506 0.002095 -0.023151
v -0.295298 0.002219 -0.036612
v -0.370893 0.003038 -0.093202
v -0.305530 0.007237 -0.098716
v -0.289056 0.002268 -0.061436
v -0.160455 0.001594 -0.010814
v -0.229500 0.003419 -0.041306
v -0.209524 0.004005 -0.087601
v -0.242847 -0.000232 -0.150018
v -0.271420 0.003238 -0.183401
v -0.288978 0.004593 -0.131298
v -0.457924 0.004447 -0.011479
v -0.487718 0.005959 -0.020616
v -0.343790 0.004191 -0.104485
v -0.318901 0.001431 -0.236072
v -0.372064 0.000912 -0.190421
v -0.253991 0.001699 -0.044891
v -0.151821 0.000878 -0.240599
v -0.254485 0.002800 -0.215828
v -0.213843 0.001513 -0.185751
v -0.175013 -0.001158 -0.107094
v -0.222640 -0.004135 -0.256250
v -0.182093 -0.003006 -0.250097
v -0.318092 0.004152 -0.197602
v -0.287578 -0.001215 -0.264379
v -0.254012 -0.003266 -0.322428
v -0.377802 0.005215 -0.048801
v -0.466645 0.005641 -0.079194
v -0.487317 -0.000191 -0.133403
v -0.381235 0.003014 -0.219268
v -0.399912 0.001370 -0.130135
v -0.489790 0.005066 -0.044247
v -0.410892 0.002157 -0.175548
v -0.393174 -0.002514 -0.308560
v -0.413799 0.000336 -0.265488
v -0.489432 -0.001790 -0.273114
v -0.458568 -0.003547 -0.324514
v -0.449724 -0.001461 -0.195663
v -0.457397 -0.000263 -0.233447
v -0.439919 -0.001168 -0.357153
v -0.459838 -0.002925 -0.359079
v -0.364055 -0.002385 -0.356494
v -0.435724 0.000533 -0.398975
v -0.392777 0.000490 -0.404005
v -0.463640 -0.001763 -0.430731
v -0.505324 -0.001929 -0.407932
v -0.332646 -0.003410 -0.435190
v -0.371364 0.001868 -0.430408
v -0.503259 -0.001541 -0.431575
v -0.297916 0.002106 -0.325560
v -0.258749 -0.002141 -0.367918
v -0.320527 0.001337 -0.355480
v -0.296223 -0.000562 -0.394294
v -0.264191 -0.001812 -0.407503
v -0.297896 0.001497 -0.429472
v -0.182378 -0.001826 -0.403123
v -0.169548 -0.002867 -0.348841
v -0.217371 0.002255 -0.371023
v -0.152731 0.003526 -0.440686
v -0.233600 0.002474 -0.440686
v -0.231403 0.002703 -0.440686
v -0.227400 0.002289 -0.440686
v -0.235664 0.002239 -0.440686
v -0.168560 -0.000802 -0.440686
v -0.256470 -0.001298 -0.440686
v -0.283359 0.000759 -0.440686
v -0.288909 -0.000473 -0.440686
v -0.300339 0.001025 -0.440686
v -0.304619 -0.000557 -0.440686
v -0.328606 -0.003513 -0.440686
v -0.338148 -0.003258 -0.440686
v -0.368625 0.000532 -0.440686
v -0.373642 0.001496 -0.440686
v -0.395366 0.000106 -0.440686
v -0.406550 -0.000689 -0.440686
v -0.428715 -0.001197 -0.440686
v -0.445114 -0.001130 -0.440686
v -0.499401 -0.001785 -0.440686
v -0.508419 -0.002400 -0.440686
v -0.007389 -0.002764 0.447741
v -0.007389 -0.002764 0.447741
v -0.520494 0.003625 -0.004642
v -0.520476 0.002202 -0.032573
v -0.520473 0.001999 -0.039648
v -0.520516 0.005276 -0.069026
v -0.520515 0.005165 -0.060916
v -0.520457 0.000805 -0.100028
v -0.520497 0.003849 -0.083605
v -0.520476 0.002190 -0.137106
v -0.520464 0.001323 -0.184537
v -0.520463 0.001263 -0.168444
v -0.520466 0.001479 -0.191305
v -0.520452 0.000374 -0.228100
v -0.520446 -0.000049 -0.237768
v -0.520426 -0.001579 -0.284566
v -0.520425 -0.001609 -0.285764
v -0.520341 -0.008035 -0.296466
v -0.520321 -0.009525 -0.210473
v -0.520423 -0.001794 -0.293258
v -0.520424 -0.001711 -0.298218
v -0.520416 -0.002288 -0.376376
v -0.520420 -0.002043 -0.393318
v -0.520439 -0.000552 -0.419286
v -0.520441 -0.000416 -0.425245
v -0.520419 -0.002095 -0.440686
v -0.503392 -0.010928 -0.306067
v -0.510400 -0.010928 -0.232892
v -0.520303 -0.010928 -0.344401
v -0.164167 0.000467 0.004417
v -0.156246 0.000577 0.004417
v -0.221551 0.002428 0.004417
v -0.230054 0.001762 0.004417
v -0.267135 0.001181 0.004417
v -0.276990 0.001381 0.004417
v -0.311311 0.004060 0.004417
v -0.349872 0.001848 0.004417
v -0.376811 0.004017 0.004417
v -0.340991 0.001021 0.004417
v -0.329958 0.003712 0.004417
v -0.439414 0.003168 0.004417
v -0.449265 0.003642 0.004417
v -0.484039 0.003040 0.004417
v -0.175080 -0.000039 0.004417
v -0.219037 0.002353 0.004417
v -0.392049 0.005041 0.004417
v -0.409929 0.002635 0.004417
v -0.494757 0.003209 0.004417
v -0.520482 0.002682 0.004417
v -0.151755 0.002961 -0.108064
v -0.151755 0.001171 -0.150507
v -0.151755 0.001760 -0.164079
v -0.151755 0.000881 -0.240575
v -0.151755 0.000886 -0.239932
v -0.151755 0.000878 -0.240730
v -0.151755 -0.002704 -0.302049
v -0.151755 0.000848 -0.241244
v -0.151755 -0.002700 -0.324978
v -0.151755 -0.000975 -0.361012
v -0.151755 0.000671 -0.369863
v -0.151755 0.003587 -0.440686
v -0.151755 -0.000456 -0.397213
v -0.151755 -0.000274 -0.379407
v -0.151755 0.002597 -0.075803
v -0.151755 0.001529 -0.015627
v -0.151755 0.001575 -0.006680
v -0.151755 0.000729 0.004417
v -0.151755 0.002571 -0.080803
v -0.151755 0.001055 -0.147823
v -0.151755 0.002662 -0.079746
v -0.151755 0.002678 -0.080220
v -0.524802 -0.014124 -0.015695
v -0.524802 -0.014126 -0.438406
v -0.152288 -0.014135 -0.438406
v -0.278937 -0.014127 0.005011
v -0.524802 -0.014124 0.005011
v -0.152288 -0.014128 0.005011
v -0.524802 -0.014126 -0.438406
v -0.524802 -0.014124 -0.015695
v -0.152288 -0.014135 -0.438406
v -0.278937 -0.014127 0.005011
v -0.524802 -0.014124 0.005011
v -0.152288 -0.014128 0.005011
v -0.524802 -0.022397 -0.438406
v -0.524802 -0.022395 -0.015695
v -0.152288 -0.022406 -0.438406
v -0.278937 -0.022397 0.005011
v -0.524802 -0.022395 0.005011
v -0.152288 -0.022399 0.005011
vn 0.0218 0.9994 0.0283
vn 0.0595 0.9981 0.0146
vn 0.0023 0.9992 0.0406
vn 0.0099 0.9999 0.0014
vn -0.0201 0.9995 -0.0229
vn 0.0009 0.9998 -0.0208
vn 0.0248 0.9997 0.0092
vn 0.0004 0.9998 0.0191
vn -0.0101 0.9998 0.0177
vn -0.0079 0.9995 0.0310
vn 0.0278 0.9967 0.0759
vn -0.0064 0.9994 0.0327
vn -0.0361 0.9982 0.0475
vn -0.0031 0.9994 0.0354
vn 0.0464 0.9978 -0.0468
vn 0.0506 0.9984 -0.0253
vn 0.0435 0.9990 0.0120
vn 0.0304 0.9986 -0.0430
vn -0.0443 0.9986 -0.0293
vn -0.0105 0.9996 -0.0265
vn -0.0075 0.9999 -0.0082
vn -0.0492 0.9949 0.0883
vn -0.0285 0.9985 -0.0478
vn 0.0203 0.9980 -0.0595
vn 0.0038 0.9997 0.0228
vn -0.0209 0.9996 -0.0200
vn 0.0352 0.9949 -0.0943
vn -0.0159 0.9996 0.0230
vn -0.0090 0.9999 -0.0069
vn -0.0002 1.0000 0.0074
vn -0.2178 0.9760 -0.0078
vn -0.0700 0.9969 0.0365
vn -0.0115 0.9993 -0.0352
vn 0.0101 0.9993 -0.0358
vn 0.0201 0.9980 -0.0606
vn -0.0377 0.9884 -0.1469
vn -0.0232 0.8612 -0.5078
vn 0.0271 0.9996 0.0117
vn 0.0070 0.9998 0.0193
vn 0.0157 0.9999 -0.0038
vn -0.0191 0.9989 0.0434
vn -0.0010 0.9986 -0.0533
vn 0.0038 0.9989 -0.0477
vn -0.0323 0.9911 -0.1295
vn -0.0000 0.9985 -0.0542
vn -0.0095 0.9997 -0.0231
vn -0.0122 0.9991 -0.0404
vn -0.0092 0.9991 0.0413
vn -0.0142 0.9996 0.0232
vn -0.0368 0.9991 0.0204
vn -0.0074 0.9995 -0.0317
vn -0.0188 0.9993 -0.0315
vn -0.0064 1.0000 0.0041
vn -0.0156 0.9998 -0.0125
vn 0.0077 0.9995 -0.0314
vn 0.0138 0.9994 -0.0329
vn 0.0145 0.9993 -0.0351
vn 0.0385 0.9992 0.0140
vn 0.0412 0.9983 0.0405
vn 0.0552 0.9984 0.0077
vn -0.0320 0.9994 -0.0161
vn -0.0136 0.9997 0.0195
vn 0.0034 0.9999 0.0107
vn -0.0070 1.0000 0.0029
vn -0.0102 0.9998 0.0147
vn 0.0223 0.9996 0.0148
vn -0.0156 0.9996 -0.0246
vn -0.0142 0.9997 0.0220
vn 0.0887 0.9920 0.0899
vn 0.0838 0.9961 0.0275
vn -0.0006 0.9999 -0.0143
vn 0.0216 0.9985 0.0507
vn 0.0752 0.9970 0.0201
vn 0.2279 0.9737 -0.0048
vn 0.0085 0.9990 0.0440
vn -0.0099 0.9988 0.0487
vn 0.1133 0.9927 0.0420
vn 0.0057 0.9991 0.0426
vn 0.0058 0.9991 -0.0411
vn -0.0019 0.9959 0.0910
vn -0.0472 0.9979 -0.0446
vn 0.0442 0.9989 0.0162
vn -0.0133 0.9999 0.0040
vn -0.0237 0.9995 -0.0218
vn 0.0023 1.0000 -0.0029
vn -0.0133 0.9997 0.0192
vn -0.0234 0.9996 -0.0181
vn -0.0079 0.9999 -0.0149
vn -0.0581 0.9978 0.0321
vn -0.0798 0.9878 0.1339
vn -0.1012 0.9904 0.0937
vn -0.0010 0.9988 0.0487
vn -0.1632 0.9851 0.0541
vn -0.0521 0.9985 0.0176
vn 0.0016 0.9992 0.0400
vn -0.0300 0.9904 0.1352
vn 0.0170 0.9990 0.0404
vn -0.1548 0.9879 0.0134
vn 0.1143 0.9931 0.0267
vn 0.0071 0.9994 0.0333
vn -0.0046 0.9968 -0.0797
vn 0.0170 0.9949 0.0995
vn 0.0287 0.9990 0.0336
vn -0.0949 0.9955 -0.0052
vn -0.1702 0.9853 0.0114
vn -0.0888 0.9715 -0.2199
vn -0.1363 0.9892 0.0545
vn 0.0795 0.9964 0.0288
vn -0.0720 0.9972 0.0196
vn -0.0251 0.9924 -0.1206
vn -0.0977 0.9928 0.0699
vn -0.1061 0.9943 -0.0102
vn -0.0160 0.9904 0.1371
vn 0.1006 0.9899 0.0997
vn -0.0332 0.9978 0.0571
vn -0.0471 0.9964 0.0704
vn -0.0284 0.9979 0.0575
vn -0.0148 0.9951 -0.0975
vn -0.0433 0.9990 0.0074
vn -0.0355 0.9992 0.0191
vn -0.0859 0.9952 0.0459
vn -0.1092 0.9935 0.0337
vn 0.0363 0.9993 0.0038
vn -0.0554 0.9979 0.0328
vn 0.0787 0.9969 0.0049
vn 0.0361 0.9945 -0.0987
vn 0.0938 0.9955 -0.0153
vn 0.0159 0.9996 -0.0246
vn 0.0530 0.9982 0.0285
vn -0.0247 0.9993 0.0263
vn -0.1656 -0.9856 -0.0340
vn -0.1668 -0.9860 -0.0066
vn -0.1333 -0.9907 0.0274
vn -0.1732 -0.9842 -0.0374
vn -0.0493 0.9963 0.0700
vn -0.0204 0.9944 0.1035
vn -0.0013 0.9964 0.0845
vn -0.1233 -0.9899 0.0704
vn -0.0367 0.9993 0.0115
vn -0.0886 0.9952 -0.0404
vn 0.0057 0.9960 -0.0893
vn 0.0417 0.9990 -0.0148
vn 0.0330 0.9994 0.0110
vn 0.0260 0.9986 0.0471
vn 0.0021 0.9997 0.0242
vn -0.0439 0.9985 0.0323
vn -0.1548 0.9871 -0.0411
vn 0.0058 0.9998 0.0186
vn -0.0091 0.9997 0.0211
vn -0.0493 0.9988 -0.0056
vn -0.1279 0.9899 -0.0606
vn -0.1260 0.9903 -0.0583
vn -0.0000 -1.0000 -0.0000
vn 1.0000 -0.0000 -0.0000
vn -0.0000 -0.0000 -0.0000
vn 0.0136 0.0002 0.9999
vn -0.0000 1.0000 -0.0000
vn -1.0000 -0.0000 -0.0000
vn -0.0000 -0.0000 -1.0000
vn -0.0000 -0.0000 1.0000
vt 0.298198 0.362548
vt 0.277187 0.409063
vt 0.314435 0.409076
vt 0.202381 0.145046
vt 0.156388 0.134405
vt 0.182323 0.181830
vt 0.175153 0.385637
vt 0.212610 0.374262
vt 0.148600 0.326286
vt 0.203957 0.321679
vt 0.217912 0.353239
vt 0.326827 0.396193
vt 0.323678 0.409086
vt 0.268346 0.370333
vt 0.285293 0.331134
vt 0.257119 0.278220
vt 0.232918 0.249945
vt 0.218009 0.294076
vt 0.171562 0.316752
vt 0.192734 0.205291
vt 0.147674 0.243924
vt 0.247608 0.367272
vt 0.334278 0.201555
vt 0.247286 0.222486
vt 0.281703 0.247980
vt 0.314561 0.314614
vt 0.274315 0.188226
vt 0.334285 0.266377
vt 0.334333 0.202120
vt 0.275057 0.409062
vt 0.334246 0.313830
vt 0.334278 0.280142
vt 0.193386 0.237893
vt 0.219297 0.181318
vt 0.334232 0.337414
vt 0.334233 0.336919
vt 0.308655 0.193470
vt 0.247773 0.132156
vt 0.334232 0.337815
vt 0.142713 0.363904
vt 0.334279 0.277870
vt 0.067468 0.338107
vt 0.050012 0.292145
vt 0.021857 0.334329
vt 0.021827 0.346685
vt 0.139913 0.219495
vt 0.124046 0.294975
vt 0.021824 0.353555
vt 0.047842 0.367693
vt 0.114768 0.256505
vt 0.129874 0.143822
vt 0.112365 0.180310
vt 0.081899 0.239423
vt 0.075416 0.207421
vt 0.048308 0.173792
vt 0.022007 0.203723
vt 0.021995 0.211914
vt 0.021957 0.243088
vt 0.021955 0.248820
vt 0.021947 0.262451
vt 0.074491 0.130263
vt 0.090298 0.102641
vt 0.073433 0.100987
vt 0.154569 0.103239
vt 0.093870 0.067227
vt 0.130253 0.062993
vt 0.070249 0.040299
vt 0.034924 0.059584
vt 0.022068 0.152510
vt 0.022066 0.156710
vt 0.181226 0.036592
vt 0.148402 0.040649
vt 0.176568 0.031934
vt 0.150734 0.031937
vt 0.074821 0.395464
vt 0.049581 0.387715
vt 0.022120 0.049965
vt 0.022128 0.071953
vt 0.036686 0.039561
vt 0.085945 0.031881
vt 0.039960 0.031845
vt 0.210560 0.129506
vt 0.243782 0.093628
vt 0.191427 0.104145
vt 0.212046 0.071271
vt 0.239194 0.060095
vt 0.210640 0.041484
vt 0.308497 0.063856
vt 0.334430 0.068889
vt 0.334438 0.032087
vt 0.333612 0.032086
vt 0.319339 0.109837
vt 0.334384 0.149484
vt 0.334397 0.130062
vt 0.278819 0.091047
vt 0.334411 0.099549
vt 0.334409 0.092061
vt 0.320221 0.032052
vt 0.270363 0.032034
vt 0.266970 0.032033
vt 0.334419 0.083971
vt 0.052694 0.408905
vt 0.082151 0.408929
vt 0.184653 0.031939
vt 0.204961 0.031970
vt 0.218268 0.031980
vt 0.208579 0.031981
vt 0.166356 0.408981
vt 0.173883 0.408981
vt 0.021914 0.320401
vt 0.021860 0.371551
vt 0.021853 0.377546
vt 0.245751 0.031995
vt 0.222965 0.031990
vt 0.330388 0.409091
vt 0.334192 0.409094
vt 0.334194 0.399700
vt 0.032324 0.031835
vt 0.118612 0.031907
vt 0.099838 0.031891
vt 0.265110 0.032031
vt 0.263363 0.032028
vt 0.146480 0.031940
vt 0.128084 0.031919
vt 0.021915 0.289002
vt 0.022157 0.031830
vt 0.022122 0.044919
vt 0.022059 0.163059
vt 0.022058 0.164074
vt 0.022122 0.086303
vt 0.117109 0.965583
vt 0.159644 0.905713
vt 0.176187 0.907439
vt 0.135105 0.954899
vt 0.021815 0.401214
vt 0.021824 0.408881
vt 0.043614 0.408900
vt 0.183411 0.872371
vt 0.115477 0.408948
vt 0.130614 0.408972
vt 0.199013 0.409016
vt 0.228098 0.409022
vt 0.143527 0.408976
vt 0.090497 0.408933
vt 0.236448 0.409027
vt 0.267857 0.409053
vt 0.183218 0.409003
vt 0.334200 0.392121
vt 0.334230 0.341155
vt 0.334334 0.201576
vt 0.334334 0.201444
vt 0.334334 0.201009
vt 0.000000 0.000000
s 1
usemtl Material.008
f 1/1/1 128/2/2 127/3/3
f 2/4/4 3/5/5 4/6/6
f 5/7/7 6/8/8 7/9/9
f 8/10/10 6/8/8 9/11/11
f 8/10/10 7/9/9 6/8/8
f 10/12/12 1/1/1 127/3/3 113/13/13
f 8/10/10 11/14/14 12/15/15
f 13/16/16 14/17/17 15/18/18
f 18/19/19 19/20/20 20/21/21
f 11/14/14 8/10/10 21/22/22
f 9/11/11 21/22/22 8/10/10
f 22/23/23 23/24/24 24/25/25
f 13/16/16 12/15/15 25/26/26
f 22/23/23 26/27/27 23/24/24
f 6/8/8 11/14/14 21/22/22
f 22/23/23 24/25/25 135/28/28 137/29/29
f 1/1/1 11/14/14 115/30/30 128/2/2
f 4/6/6 19/20/20 2/4/4
f 25/26/26 133/31/31 152/32/32
f 14/17/17 28/33/33 15/18/18
f 19/20/20 28/33/33 29/34/34
f 28/33/33 23/24/24 29/34/34
f 25/26/26 12/15/15 154/35/35 151/36/36
f 20/21/21 19/20/20 4/6/6
f 27/37/37 26/27/27 22/23/23
f 14/17/17 24/25/25 23/24/24
f 8/10/10 18/19/19 7/9/9
f 8/10/10 15/18/18 18/19/19
f 26/27/27 27/37/37 30/38/38
f 23/24/24 30/38/38 29/34/34
f 15/18/18 28/33/33 18/19/19
f 19/20/20 18/19/19 28/33/33
f 12/15/15 15/18/18 8/10/10
f 15/18/18 12/15/15 13/16/16
f 25/26/26 24/25/25 13/16/16
f 1/1/1 12/15/15 11/14/14
f 14/17/17 13/16/16 24/25/25
f 1/1/1 153/39/39 154/35/35 12/15/15
f 28/33/33 14/17/17 23/24/24
f 26/27/27 30/38/38 23/24/24
f 21/22/22 9/11/11 6/8/8
f 31/40/40 5/7/7 7/9/9
f 3/5/5 20/21/21 4/6/6
f 25/26/26 151/36/36 133/31/31
f 24/25/25 25/26/26 152/32/32 134/41/41 135/28/28
f 2/4/4 19/20/20 29/34/34
f 32/42/42 33/43/43 92/44/44 89/45/45
f 20/21/21 3/5/5 34/46/46
f 32/42/42 35/47/47 33/43/43
f 35/47/47 18/19/19 20/21/21
f 31/40/40 35/47/47 32/42/42
f 32/42/42 89/45/45 90/48/48 36/49/49
f 37/50/50 35/47/47 20/21/21
f 35/47/47 7/9/9 18/19/19
f 34/46/46 38/51/51 39/52/52
f 42/53/53 33/43/43 35/47/47
f 43/54/54 40/55/55 98/56/56 97/57/57
f 37/50/50 42/53/53 35/47/47
f 42/53/53 43/54/54 96/58/58 94/59/59
f 42/53/53 37/50/50 43/54/54
f 37/50/50 34/46/46 43/54/54
f 7/9/9 35/47/47 31/40/40
f 42/53/53 94/59/59 95/60/60 33/43/43
f 39/52/52 43/54/54 34/46/46
f 40/55/55 43/54/54 39/52/52
f 34/46/46 37/50/50 20/21/21
f 41/61/61 40/55/55 39/52/52
f 44/62/62 45/63/63 41/61/61
f 44/62/62 41/61/61 39/52/52
f 38/51/51 44/62/62 39/52/52
f 44/62/62 46/64/64 47/65/65
f 46/64/64 48/66/66 47/65/65
f 46/64/64 44/62/62 38/51/51
f 48/66/66 49/67/67 47/65/65
f 44/62/62 50/68/68 45/63/63
f 50/68/68 47/65/65 49/67/67
f 44/62/62 47/65/65 50/68/68
f 46/64/64 38/51/51 3/5/5
f 45/63/63 104/69/69 103/70/70 41/61/61
f 46/64/64 51/71/71 48/66/66
f 51/71/71 52/72/72 48/66/66
f 3/5/5 38/51/51 34/46/46
f 51/71/71 75/73/73 76/74/74 52/72/72
f 16/75/75 31/40/40 36/49/49
f 16/75/75 36/49/49 17/76/76
f 32/42/42 36/49/49 31/40/40
f 50/68/68 107/77/77 106/78/78
f 50/68/68 49/67/67 53/79/79
f 53/79/79 81/80/80 82/81/81
f 54/82/82 55/83/83 56/84/84
f 56/84/84 57/85/85 51/71/71
f 56/84/84 2/4/4 54/82/82
f 56/84/84 51/71/71 46/64/64
f 57/85/85 56/84/84 55/83/83
f 3/5/5 56/84/84 46/64/64
f 55/83/83 58/86/86 57/85/85
f 2/4/4 56/84/84 3/5/5
f 59/87/87 51/71/71 57/85/85
f 60/88/88 145/89/89 144/90/90 63/91/91
f 30/38/38 27/37/37 61/92/92
f 27/37/37 139/93/93 141/94/94 61/92/92
f 61/92/92 62/95/95 30/38/38
f 61/92/92 142/96/96 143/97/97 62/95/95
f 60/88/88 68/98/98 66/99/99
f 60/88/88 66/99/99 65/100/100 62/95/95
f 62/95/95 143/97/97 146/101/101 60/88/88
f 16/75/75 126/102/102 125/103/103
f 29/34/34 54/82/82 2/4/4
f 55/83/83 54/82/82 30/38/38
f 30/38/38 62/95/95 55/83/83
f 29/34/34 30/38/38 54/82/82
f 51/71/71 74/104/104 75/73/73
f 59/87/87 57/85/85 58/86/86
f 59/87/87 73/105/105 74/104/104 51/71/71
f 59/87/87 71/106/106 72/107/107
f 5/7/7 120/108/108 122/109/109
f 33/43/43 91/110/110 92/44/44
f 36/49/49 90/48/48 88/111/111
f 17/76/76 36/49/49 88/111/111 87/112/112
f 59/87/87 58/86/86 69/113/113 70/114/114
f 10/12/12 114/115/115 150/116/116 149/117/117
f 10/12/12 113/13/13 114/115/115
f 82/81/81 83/118/118 53/79/79
f 70/114/114 71/106/106 59/87/87
f 79/119/119 80/120/120 49/67/67 48/66/66
f 64/121/121 67/122/122 58/86/86 55/83/83
f 65/100/100 64/121/121 55/83/83 62/95/95
f 80/120/120 81/80/80 53/79/79 49/67/67
f 76/74/74 77/123/123 52/72/72
f 63/91/91 68/98/98 60/88/88
f 77/123/123 78/124/124 52/72/72
f 72/107/107 73/105/105 59/87/87
f 67/122/122 69/113/113 58/86/86
f 78/124/124 79/119/119 48/66/66 52/72/72
f 93/125/125 91/110/110 33/43/43
f 109/126/126 108/127/127 53/79/79 83/118/118
f 103/70/70 100/128/128 99/129/129 40/55/55 41/61/61
f 105/130/130 104/69/69 45/63/63
f 102/131/131 101/132/132 110/133/133 111/134/134
f 86/135/135 132/136/136 131/137/137 17/76/76
f 97/57/57 96/58/58 43/54/54
f 87/112/112 86/135/135 17/76/76
f 95/60/60 93/125/125 33/43/43
f 99/129/129 98/56/56 40/55/55
f 101/132/132 112/138/138 110/133/133
f 106/78/78 105/130/130 45/63/63 50/68/68
f 108/127/127 107/77/77 50/68/68 53/79/79
f 130/139/139 129/140/140 31/40/40
f 119/141/141 118/142/142 6/8/8
f 129/140/140 121/143/143 5/7/7 31/40/40
f 124/144/144 130/139/139 31/40/40 16/75/75
f 121/143/143 120/108/108 5/7/7
f 118/142/142 117/145/145 6/8/8
f 116/146/146 115/30/30 11/14/14
f 123/147/147 119/141/141 6/8/8 5/7/7
f 125/103/103 124/144/144 16/75/75
f 117/145/145 116/146/146 11/14/14 6/8/8
f 131/137/137 126/102/102 16/75/75 17/76/76
f 122/109/109 123/147/147 5/7/7
f 148/148/148 147/149/149 10/12/12
f 141/94/94 142/96/96 61/92/92
f 147/149/149 153/39/39 1/1/1 10/12/12
f 149/117/117 148/148/148 10/12/12
f 136/150/150 138/151/151 22/23/23
f 137/29/29 136/150/150 22/23/23
f 146/101/101 145/89/89 60/88/88
f 138/151/151 140/152/152 22/23/23
f 140/152/152 139/93/93 27/37/37 22/23/23
s 0
f 156/153/153 157/153/153 160/153/153 158/153/153 159/153/153 155/153/153
f 161/153/154 162/153/154 168/153/154 167/153/154
f 155/153/155 159/153/155 165/153/155 162/153/155
f 159/153/156 158/153/156 164/153/156 165/153/156
f 156/153/155 155/153/155 162/153/155 161/153/155
f 160/153/155 157/153/155 163/153/155 166/153/155
f 158/153/156 160/153/156 166/153/156 164/153/156
f 157/153/156 156/153/156 161/153/156 163/153/156
f 167/153/157 168/153/157 171/153/157 170/153/157 172/153/157 169/153/157
f 166/153/158 163/153/158 169/153/158 172/153/158
f 164/153/159 166/153/159 172/153/159 170/153/159
f 163/153/160 161/153/160 167/153/160 169/153/160
f 162/153/154 165/153/154 171/153/154 168/153/154
f 165/153/159 164/153/159 170/153/159 171/153/159
l 85 84
