# Blender 4.3.2
# www.blender.org
mtllib painting5.mtl
g Object.005_Object.011
v 0.091438 -0.001572 0.048436
v 0.143375 -0.001134 0.031457
v 0.105037 -0.003668 0.037080
v 0.229359 -0.003203 0.052957
v 0.209471 -0.002629 0.082517
v 0.179117 -0.000557 0.116485
v -0.129077 -0.000105 0.042737
v 0.033994 -0.002555 0.050218
v -0.026361 0.000311 0.030817
v -0.010309 0.001145 0.079830
v -0.011384 -0.001654 0.211256
v 0.010600 -0.002814 0.151412
v -0.030768 0.001555 0.131368
v 0.128871 -0.000871 0.151027
v 0.113330 0.000242 0.122433
v 0.084660 -0.000124 0.166073
v 0.050755 -0.000252 0.185859
v 0.071543 0.003678 0.212283
v 0.030628 -0.000696 0.112767
v 0.075453 -0.002247 0.121492
v 0.171033 -0.002120 0.125470
v -0.059553 0.002248 0.038245
v -0.055048 0.001670 0.108777
v -0.087416 0.003521 0.151891
v -0.046550 0.002281 0.239407
v -0.079480 0.002796 0.195735
v 0.131402 -0.003075 0.087374
v 0.055920 -0.001284 0.059839
v 0.036920 0.001460 0.238605
v 0.119772 -0.000897 0.196929
v 0.006884 -0.002288 0.240930
v 0.176236 -0.001145 0.171375
v 0.067168 0.006134 0.444288
v 0.046699 0.002365 0.391657
v 0.018913 0.002624 0.428705
v 0.020806 -0.000509 0.351735
v -0.040542 0.007313 0.448049
v -0.024392 0.000677 0.307772
v 0.085287 0.000273 0.356461
v 0.051848 0.005098 0.335512
v 0.008638 0.002484 0.322641
v 0.076587 0.000116 0.248154
v -0.031700 0.005741 0.345471
v -0.085634 0.004753 0.234691
v -0.111767 0.007302 0.326260
v -0.057302 0.001608 0.286410
v -0.097988 0.002735 0.267563
v -0.050919 0.002305 0.340684
v -0.058284 0.002038 0.402503
v -0.108877 0.007703 0.371578
v 0.076368 0.001407 0.413811
v 0.167762 0.003492 0.376977
v 0.199908 0.002871 0.406392
v 0.229684 0.001654 0.388631
v 0.233849 -0.000144 0.263552
v 0.195392 -0.000826 0.339740
v 0.143622 -0.000083 0.390250
v 0.209834 0.000632 0.429454
v 0.181621 0.000709 0.270996
v 0.101283 -0.001357 0.320852
v 0.142584 0.001210 0.322641
v 0.119990 0.000312 0.302072
v 0.113973 -0.002346 0.246970
v 0.121555 0.000776 0.228076
v 0.219161 0.004431 0.188613
v 0.219161 0.004431 0.188613
v -0.123278 -0.001021 0.142342
v -0.110014 0.009925 0.391822
v -0.106278 -0.001147 0.061949
v -0.109883 0.000765 0.265439
v 0.032185 -0.001974 0.467661
v 0.032185 -0.001974 0.467661
v 0.213947 0.003798 0.449713
v 0.209678 0.002675 0.449713
v 0.189874 0.004135 0.449713
v 0.158385 0.006362 0.449713
v 0.165951 0.005987 0.449713
v 0.185315 0.005005 0.449713
v 0.154736 0.005696 0.449713
v 0.135624 0.001482 0.449713
v 0.122854 0.001655 0.449713
v 0.083921 0.000868 0.449713
v 0.074782 0.003904 0.449713
v 0.063135 0.005473 0.449713
v 0.041642 0.003529 0.449713
v 0.023542 -0.000072 0.449713
v 0.000144 0.003236 0.449713
v -0.036606 0.006831 0.449713
v -0.041590 0.007133 0.449713
v -0.044564 0.006590 0.449713
v -0.065129 0.002557 0.449713
v -0.098952 0.006284 0.449713
v -0.086373 0.004458 0.449713
v -0.108823 0.009342 0.449713
v 0.218587 -0.001382 0.020562
v 0.211982 -0.000885 0.020562
v 0.207467 -0.000413 0.020562
v 0.160807 -0.003259 0.020562
v 0.152652 -0.002500 0.020562
v 0.089863 -0.001386 0.020562
v 0.109998 -0.001684 0.020562
v 0.113526 -0.002883 0.020562
v 0.137656 -0.001340 0.020562
v 0.080568 -0.000776 0.020562
v 0.041788 -0.000892 0.020562
v -0.009704 0.000506 0.020562
v 0.074590 -0.000384 0.020562
v -0.123672 0.001536 0.020562
v -0.117714 0.001619 0.020562
v -0.096770 0.002331 0.020562
v -0.023792 0.000579 0.020562
v -0.064194 0.002178 0.020562
v -0.036617 0.000681 0.020562
v -0.132940 0.007095 0.449713
v -0.132940 0.007232 0.438329
v -0.132940 0.006525 0.402030
v -0.132940 0.005915 0.396997
v -0.132940 0.005863 0.383450
v -0.132940 0.007820 0.323187
v -0.132940 0.006769 0.284957
v -0.132940 0.004720 0.294012
v -0.132940 0.004325 0.212955
v -0.132940 0.006228 0.300356
v -0.132940 0.004158 0.172720
v -0.132940 0.004305 0.161367
v -0.132940 0.003206 0.157742
v -0.132940 0.000962 0.150345
v -0.132940 0.000240 0.121907
v -0.132940 0.000995 0.079948
v -0.132940 0.002034 0.059648
v -0.132940 0.000725 0.046193
v -0.132940 0.000135 0.041673
v -0.132940 0.001106 0.020562
v -0.132940 0.000409 0.031680
v 0.234108 0.004264 0.449713
v 0.234108 0.003041 0.419936
v 0.234108 0.001629 0.395429
v 0.234108 0.001258 0.342083
v 0.234108 -0.000529 0.286099
v 0.234108 -0.000426 0.280560
v 0.234108 0.001248 0.389600
v 0.234108 0.001392 0.351948
v 0.234108 0.001374 0.344299
v 0.234108 0.001360 0.342763
v 0.234108 0.002631 0.222645
v 0.234108 0.001883 0.201485
v 0.234108 0.001033 0.201258
v 0.234108 0.001033 0.201258
v 0.234108 0.001632 0.194363
v 0.234108 -0.000169 0.264756
v 0.234108 -0.000133 0.263676
v 0.234108 0.000753 0.260896
v 0.234108 -0.000140 0.263490
v 0.234108 -0.001774 0.097991
v 0.234108 -0.001786 0.098283
v 0.234108 -0.001731 0.099185
v 0.234108 0.003647 0.201957
v 0.234108 0.003647 0.201957
v 0.234108 0.003288 0.175295
v 0.234108 0.000952 0.138791
v 0.234108 -0.001286 0.106633
v 0.234108 -0.001028 0.080552
v 0.234108 -0.002702 0.055466
v 0.234108 -0.003196 0.052341
v 0.234108 -0.003011 0.048291
v 0.234108 -0.002505 0.029067
v 0.234108 -0.002170 0.020562
v 0.091991 -0.013333 0.449911
v 0.005711 -0.013340 0.021872
v 0.232191 -0.013336 0.229797
v 0.232191 -0.013338 0.021872
v 0.232191 -0.013333 0.449911
v -0.133464 -0.013336 0.238726
v -0.133464 -0.013333 0.449911
v -0.133464 -0.013339 0.021872
vn -0.0171 0.9999 -0.0019
vn -0.0271 0.9996 0.0105
vn 0.0468 0.9861 0.1593
vn 0.0241 0.9997 -0.0050
vn 0.0218 0.9997 0.0088
vn 0.0045 0.9997 -0.0246
vn 0.0566 0.9976 0.0401
vn 0.0865 0.9953 0.0439
vn -0.0187 0.9995 -0.0235
vn -0.0099 0.9976 -0.0684
vn 0.0029 0.9983 -0.0586
vn -0.0376 0.9991 -0.0183
vn 0.0262 0.9994 0.0233
vn 0.0136 0.9998 -0.0134
vn -0.0549 0.9923 -0.1108
vn -0.0195 0.9984 -0.0536
vn 0.0205 0.9997 0.0139
vn 0.0316 0.9994 0.0146
vn 0.0405 0.9991 -0.0127
vn 0.0737 0.9973 0.0001
vn 0.0053 0.9999 0.0133
vn 0.0498 0.9985 0.0210
vn 0.0131 0.9999 -0.0058
vn 0.0087 0.9998 -0.0201
vn -0.0043 0.9997 -0.0229
vn -0.0708 0.9965 -0.0434
vn 0.0094 0.9999 -0.0143
vn 0.0236 0.9997 0.0055
vn -0.0077 0.9999 -0.0123
vn 0.0070 0.9998 0.0193
vn -0.0051 0.9978 0.0664
vn 0.0247 0.9972 0.0707
vn 0.0754 0.9969 -0.0220
vn -0.0037 0.9999 0.0106
vn -0.0104 0.9999 -0.0122
vn 0.0109 0.9996 -0.0243
vn 0.0686 0.9976 -0.0077
vn 0.0414 0.9991 -0.0027
vn -0.0190 0.9996 -0.0214
vn 0.0061 1.0000 -0.0079
vn -0.0037 0.9985 0.0538
vn -0.0472 0.9985 -0.0268
vn 0.0387 0.9985 -0.0377
vn 0.0089 0.9993 0.0375
vn -0.0420 0.9985 -0.0343
vn -0.0401 0.9991 -0.0148
vn 0.2156 0.9617 0.1693
vn 0.0373 0.9991 -0.0208
vn -0.0059 0.9998 -0.0166
vn 0.0407 0.9992 -0.0013
vn 0.0177 0.9998 0.0057
vn -0.0296 0.9996 -0.0024
vn 0.1519 0.9884 -0.0066
vn 0.1791 0.9838 0.0037
vn 0.0172 0.9991 -0.0383
vn 0.0536 0.9986 -0.0033
vn 0.0252 0.9997 -0.0007
vn -0.0083 0.9998 -0.0207
vn 0.0310 0.9995 0.0010
vn 0.0430 0.9986 -0.0313
vn -0.0109 0.9999 0.0024
vn 0.0428 0.9989 -0.0213
vn 0.0434 0.9990 -0.0122
vn 0.0099 0.9985 -0.0541
vn -0.0021 0.9999 -0.0132
vn 0.0474 0.9989 -0.0005
vn 0.0548 0.9983 -0.0183
vn -0.0172 0.9955 0.0937
vn 0.0372 0.9990 -0.0234
vn -0.0241 0.9985 -0.0491
vn 0.0563 0.9984 -0.0099
vn 0.0200 0.9996 -0.0211
vn -0.0276 0.9935 -0.1100
vn 0.0188 0.9995 -0.0272
vn 0.0919 0.9949 -0.0419
vn 0.0187 0.9997 -0.0144
vn 0.0758 0.9947 -0.0689
vn -0.0186 0.9998 0.0118
vn -0.0643 0.9975 -0.0283
vn -0.1284 0.9910 0.0374
vn -0.0625 0.9915 -0.1141
vn -0.0000 0.9997 -0.0247
vn -0.0470 0.9987 -0.0211
vn -0.1154 0.9783 -0.1720
vn -0.2501 0.9461 -0.2056
vn 0.0342 0.9989 -0.0307
vn -0.0396 0.9975 -0.0581
vn -0.1005 0.9932 -0.0587
vn 0.2024 0.9787 -0.0332
vn 0.1280 0.9915 -0.0220
vn 0.0165 0.9843 -0.1756
vn -0.1113 0.9747 -0.1941
vn 0.0027 1.0000 0.0020
vn 0.0168 0.9998 0.0109
vn -0.0040 0.9999 0.0141
vn 0.0210 0.9997 -0.0082
vn -0.0219 0.9995 0.0234
vn -0.0013 0.9999 -0.0136
vn -0.0231 0.9997 0.0058
vn 0.0002 1.0000 0.0021
vn -0.0191 0.9998 0.0003
vn 0.1515 0.9847 0.0855
vn 0.0339 0.9993 -0.0174
vn -0.0094 0.9972 -0.0740
vn 0.0071 0.9886 0.1503
vn 0.0086 0.9988 0.0490
vn -0.0473 0.9957 0.0798
vn 0.3136 0.9483 -0.0496
vn 0.1335 0.9900 -0.0455
vn -0.0376 0.9876 -0.1522
vn -0.1282 0.9912 -0.0320
vn -0.0247 0.9989 -0.0408
vn 0.0533 0.9982 -0.0291
vn 0.2357 0.9710 -0.0392
vn 0.2293 0.9730 -0.0262
vn 0.1517 0.9874 -0.0440
vn -0.1166 0.9922 -0.0437
vn -0.0445 0.9985 0.0313
vn -0.0111 0.9914 -0.1305
vn -0.1809 0.9756 -0.1241
vn -0.0123 0.9999 0.0056
vn 0.0042 0.9916 -0.1290
vn 0.0412 0.9990 0.0173
vn -0.0408 0.9873 -0.1534
vn 0.0602 0.9748 -0.2148
vn -0.0439 0.9560 -0.2900
vn 0.0717 0.9973 -0.0121
vn 0.1345 0.9874 -0.0830
vn 0.1419 0.9898 -0.0093
vn 0.1198 0.9922 0.0332
vn 0.1489 0.9884 0.0288
vn 0.0786 0.9967 0.0211
vn -0.1280 0.9892 -0.0718
vn 0.0356 0.9991 -0.0237
vn -0.0482 0.9987 -0.0160
vn 0.3545 0.9177 0.1796
vn 0.0249 0.9914 -0.1287
vn -0.0231 0.9989 -0.0410
vn -0.0527 0.9972 -0.0539
vn -0.0285 0.9989 0.0378
vn 0.0328 0.9992 0.0238
vn 0.0655 0.9978 0.0029
vn -0.0145 0.9959 0.0892
vn -0.0240 0.9961 0.0855
vn 0.0777 0.9967 -0.0223
vn 0.0342 0.9994 -0.0049
vn -0.0179 0.9972 0.0728
vn 0.0536 0.9986 -0.0011
vn -0.0336 0.9961 0.0816
vn -0.0273 0.9973 0.0680
vn 0.0152 0.9966 -0.0809
vn 0.0490 0.9984 -0.0272
vn -0.0555 0.9978 -0.0359
vn 0.0921 0.9956 -0.0144
vn 0.0380 0.9988 0.0303
vn 0.0367 0.9986 0.0393
vn -0.0814 0.9802 0.1804
vn -0.0838 0.9961 -0.0291
vn -0.0614 0.9972 0.0426
vn -0.0231 0.9994 0.0273
vn 0.6589 0.1945 -0.7266
vn -0.0000 1.0000 -0.0000
vt 0.550685 0.415267
vt 0.545848 0.406033
vt 0.525414 0.406010
vt 0.518216 0.419992
vt 0.606654 0.458550
vt 0.623522 0.433519
vt 0.614407 0.406083
vt 0.608810 0.406082
vt 0.580912 0.487315
vt 0.627505 0.479000
vt 0.627511 0.472688
vt 0.627512 0.471924
vt 0.604983 0.406082
vt 0.565468 0.406037
vt 0.627541 0.435650
vt 0.627545 0.433000
vt 0.458022 0.431084
vt 0.406892 0.414630
vt 0.420459 0.456161
vt 0.419483 0.567469
vt 0.438146 0.516784
vt 0.403095 0.499806
vt 0.538329 0.516542
vt 0.525175 0.492318
vt 0.500864 0.529263
vt 0.472131 0.546002
vt 0.489710 0.568419
vt 0.455125 0.484075
vt 0.493099 0.491484
vt 0.574065 0.494913
vt 0.464634 0.405978
vt 0.421008 0.405954
vt 0.506681 0.429615
vt 0.378762 0.420912
vt 0.382540 0.480656
vt 0.355087 0.517167
vt 0.389660 0.591315
vt 0.361788 0.554304
vt 0.540519 0.462613
vt 0.476585 0.439254
vt 0.492419 0.406001
vt 0.460374 0.590682
vt 0.530593 0.555417
vt 0.409073 0.405946
vt 0.434943 0.592612
vt 0.578442 0.533805
vt 0.522420 0.406015
vt 0.485859 0.764950
vt 0.468565 0.720335
vt 0.445004 0.751701
vt 0.446666 0.686488
vt 0.394607 0.768076
vt 0.397942 0.769485
vt 0.429089 0.769488
vt 0.408398 0.649227
vt 0.501283 0.690534
vt 0.472948 0.672796
vt 0.436362 0.661853
vt 0.493977 0.598787
vt 0.402164 0.681184
vt 0.356543 0.587309
vt 0.334342 0.664872
vt 0.380527 0.631118
vt 0.346067 0.615136
vt 0.385900 0.677099
vt 0.379626 0.729457
vt 0.336762 0.703263
vt 0.448924 0.769483
vt 0.493689 0.739113
vt 0.571125 0.707981
vt 0.598342 0.732913
vt 0.627356 0.680329
vt 0.627357 0.679028
vt 0.623581 0.717880
vt 0.627330 0.718701
vt 0.627351 0.686808
vt 0.627325 0.723641
vt 0.627190 0.611924
vt 0.627409 0.612944
vt 0.627409 0.612029
vt 0.627358 0.678451
vt 0.594570 0.676431
vt 0.550682 0.719189
vt 0.543866 0.769560
vt 0.560039 0.769596
vt 0.606746 0.752441
vt 0.606594 0.769612
vt 0.610205 0.769621
vt 0.589811 0.769608
vt 0.585945 0.769611
vt 0.569538 0.769604
vt 0.563127 0.769602
vt 0.627398 0.631020
vt 0.627401 0.626329
vt 0.582938 0.618203
vt 0.514861 0.660372
vt 0.549837 0.661927
vt 0.530713 0.644486
vt 0.525658 0.597793
vt 0.532079 0.581811
vt 0.614772 0.548464
vt 0.627440 0.559164
vt 0.627442 0.553327
vt 0.627446 0.537185
vt 0.627477 0.506252
vt 0.627407 0.609680
vt 0.627422 0.577290
vt 0.627429 0.559772
vt 0.492314 0.769537
vt 0.500069 0.769526
vt 0.533048 0.769553
vt 0.464242 0.769515
vt 0.482442 0.769539
vt 0.335778 0.720422
vt 0.336756 0.769455
vt 0.345130 0.769444
vt 0.355794 0.769442
vt 0.316364 0.729035
vt 0.316340 0.759787
vt 0.373798 0.769444
vt 0.391202 0.769479
vt 0.339181 0.440943
vt 0.316514 0.525169
vt 0.316508 0.534784
vt 0.324732 0.509031
vt 0.316534 0.515814
vt 0.316521 0.522093
vt 0.319874 0.424662
vt 0.316596 0.427592
vt 0.316582 0.438997
vt 0.316575 0.456185
vt 0.316554 0.491722
vt 0.336000 0.613318
vt 0.316370 0.724769
vt 0.316405 0.662258
vt 0.316378 0.713294
vt 0.316431 0.629870
vt 0.316434 0.637529
vt 0.627282 0.769636
vt 0.627305 0.744407
vt 0.393719 0.769484
vt 0.505362 0.406004
vt 0.497485 0.406002
vt 0.329505 0.405894
vt 0.324459 0.405890
vt 0.558556 0.406036
vt 0.374841 0.405930
vt 0.347245 0.405911
vt 0.398208 0.405939
vt 0.316609 0.405883
vt 0.316606 0.415296
vt 0.316425 0.642911
vt 0.316483 0.568868
vt 0.316334 0.769429
vt 0.316601 0.423760
vt 0.627556 0.413291
vt 0.627559 0.406088
vt 0.627409 0.611872
vt 0.627519 0.456909
vt 0.627512 0.471676
vt 0.627547 0.429571
vt 0.646789 0.902556
vt 0.646998 0.900794
vt 0.647098 0.899945
vt 0.663820 0.902556
vt 0.000000 0.000000
s 1
usemtl Material.012
f 2/1/1 103/2/2 102/3/3 3/4/4
f 5/5/5 4/6/6 95/7/7 96/8/8
f 6/9/9 161/10/10 156/11/11 155/12/12 5/5/5
f 6/9/9 97/13/13 98/14/14
f 4/6/6 163/15/15 164/16/16
f 8/17/17 9/18/18 10/19/19
f 11/20/20 12/21/21 13/22/22
f 14/23/23 15/24/24 16/25/25
f 17/26/26 18/27/27 16/25/25
f 13/22/22 12/21/21 19/28/28
f 20/29/29 16/25/25 15/24/24
f 21/30/30 6/9/9 15/24/24
f 8/17/17 105/31/31 106/32/32 9/18/18
f 20/29/29 15/24/24 1/33/33
f 22/34/34 23/35/35 10/19/19
f 13/22/22 23/35/35 24/36/36
f 25/37/37 24/36/36 26/38/38
f 27/39/39 3/4/4 15/24/24
f 28/40/40 20/29/29 1/33/33
f 1/33/33 107/41/41 105/31/31 8/17/17
f 24/36/36 25/37/37 11/20/20
f 1/33/33 15/24/24 3/4/4
f 13/22/22 19/28/28 10/19/19
f 16/25/25 12/21/21 17/26/26
f 17/26/26 29/42/42 18/27/27
f 24/36/36 11/20/20 13/22/22
f 14/23/23 16/25/25 30/43/43
f 9/18/18 106/32/32 111/44/44
f 17/26/26 31/45/45 29/42/42
f 16/25/25 18/27/27 30/43/43
f 21/30/30 14/23/23 32/46/46
f 12/21/21 16/25/25 19/28/28
f 6/9/9 27/39/39 15/24/24
f 28/40/40 1/33/33 8/17/17
f 21/30/30 15/24/24 14/23/23
f 1/33/33 3/4/4 102/3/3 101/47/47
f 28/40/40 19/28/28 20/29/29
f 28/40/40 8/17/17 19/28/28
f 27/39/39 6/9/9 2/1/1
f 17/26/26 12/21/21 31/45/45
f 10/19/19 9/18/18 22/34/34
f 12/21/21 11/20/20 31/45/45
f 16/25/25 20/29/29 19/28/28
f 13/22/22 10/19/19 23/35/35
f 10/19/19 19/28/28 8/17/17
f 3/4/4 27/39/39 2/1/1
f 33/48/48 34/49/49 35/50/50
f 34/49/49 36/51/51 35/50/50
f 35/50/50 37/52/52 88/53/53 87/54/54
f 25/37/37 38/55/55 11/20/20
f 34/49/49 39/56/56 40/57/57
f 41/58/58 36/51/51 40/57/57
f 36/51/51 34/49/49 40/57/57
f 42/59/59 29/42/42 41/58/58
f 43/60/60 37/52/52 35/50/50
f 44/61/61 25/37/37 26/38/38
f 45/62/62 38/55/55 46/63/63
f 25/37/37 44/61/61 46/63/63
f 11/20/20 38/55/55 31/45/45
f 44/61/61 47/64/64 46/63/63
f 48/65/65 37/52/52 43/60/60
f 37/52/52 48/65/65 49/66/66
f 29/42/42 38/55/55 41/58/58
f 31/45/45 38/55/55 29/42/42
f 49/66/66 48/65/65 50/67/67
f 36/51/51 41/58/58 43/60/60
f 35/50/50 87/54/54 86/68/68
f 51/69/69 39/56/56 34/49/49
f 43/60/60 35/50/50 36/51/51
f 45/62/62 48/65/65 38/55/55
f 38/55/55 25/37/37 46/63/63
f 38/55/55 43/60/60 41/58/58
f 46/63/63 47/64/64 45/62/62
f 43/60/60 38/55/55 48/65/65
f 52/70/70 53/71/71 143/72/72 144/73/73
f 54/74/74 141/75/75 142/76/76
f 54/74/74 137/77/77 141/75/75
f 55/78/78 150/79/79 151/80/80
f 52/70/70 144/73/73 138/81/81 56/82/82
f 57/83/83 80/84/84 79/85/85
f 54/74/74 58/86/86 74/87/87 73/88/88
f 58/86/86 75/89/89 74/87/87
f 54/74/74 53/71/71 58/86/86
f 53/71/71 78/90/90 75/89/89 58/86/86
f 53/71/71 77/91/91 78/90/90
f 52/70/70 76/92/92 77/91/91 53/71/71
f 52/70/70 57/83/83 79/85/85 76/92/92
f 56/82/82 139/93/93 140/94/94 59/95/95
f 53/71/71 54/74/74 142/76/76 143/72/72
f 52/70/70 56/82/82 60/96/96
f 56/82/82 61/97/97 60/96/96
f 60/96/96 62/98/98 42/59/59
f 63/99/99 42/59/59 62/98/98
f 64/100/100 30/43/43 18/27/27
f 41/58/58 40/57/57 42/59/59
f 61/97/97 56/82/82 59/95/95
f 51/69/69 57/83/83 39/56/56
f 60/96/96 61/97/97 62/98/98
f 63/99/99 61/97/97 64/100/100
f 64/100/100 32/46/46 14/23/23
f 42/59/59 18/27/27 29/42/42
f 64/100/100 59/95/95 32/46/46
f 60/96/96 57/83/83 52/70/70
f 64/100/100 18/27/27 42/59/59
f 30/43/43 64/100/100 14/23/23
f 63/99/99 64/100/100 42/59/59
f 40/57/57 60/96/96 42/59/59
f 64/100/100 61/97/97 59/95/95
f 39/56/56 60/96/96 40/57/57
f 59/95/95 140/94/94 150/79/79 55/78/78
f 62/98/98 61/97/97 63/99/99
f 57/83/83 60/96/96 39/56/56
f 65/101/101 148/102/102 149/103/102 159/104/103
f 32/46/46 6/9/9 21/30/30
f 65/101/101 6/9/9 32/46/46
f 32/46/46 59/95/95 65/101/101
f 6/9/9 65/101/101 160/105/104 161/10/10
f 65/101/101 59/95/95 152/106/105 145/107/106 157/108/107
f 33/48/48 83/109/108 82/110/109 51/69/69
f 51/69/69 82/110/109 81/111/110
f 33/48/48 35/50/50 85/112/111 84/113/112
f 33/48/48 51/69/69 34/49/49
f 68/114/113 94/115/114 92/116/115
f 68/114/113 92/116/115 93/117/116 49/66/66
f 68/114/113 49/66/66 50/67/67
f 68/114/113 116/118/117 115/119/118
f 48/65/65 45/62/62 50/67/67
f 49/66/66 91/120/119 90/121/120 37/52/52
f 23/35/35 22/34/34 69/122/121
f 26/38/38 24/36/36 125/123/122 124/124/123
f 69/122/121 67/125/124 24/36/36
f 24/36/36 67/125/124 127/126/125 126/127/126 125/123/122
f 24/36/36 23/35/35 69/122/121
f 69/122/121 7/128/127 131/129/128 130/130/129
f 69/122/121 130/130/129 129/131/130
f 69/122/121 129/131/130 128/132/131 67/125/124
f 47/64/64 44/61/61 70/133/132
f 68/114/113 50/67/67 117/134/133 116/118/117
f 45/62/62 119/135/134 118/136/135
f 26/38/38 70/133/132 44/61/61
f 70/133/132 26/38/38 120/137/136 121/138/137
f 84/113/112 83/109/108 33/48/48
f 81/111/110 80/84/84 57/83/83 51/69/69
f 73/88/88 135/139/138 136/140/139 54/74/74
f 90/121/120 89/141/140 37/52/52
f 93/117/116 91/120/119 49/66/66
f 86/68/68 85/112/111 35/50/50
f 89/141/140 88/53/53 37/52/52
f 100/142/141 104/143/142 107/41/41 1/33/33
f 96/8/8 97/13/13 6/9/9 5/5/5
f 109/144/143 108/145/144 7/128/127 69/122/121
f 99/146/145 103/2/2 2/1/1
f 112/147/146 110/148/147 22/34/34
f 110/148/147 109/144/143 69/122/121 22/34/34
f 101/47/47 100/142/141 1/33/33
f 111/44/44 113/149/148 9/18/18
f 98/14/14 99/146/145 2/1/1 6/9/9
f 108/145/144 133/150/149 134/151/150 7/128/127
f 113/149/148 112/147/146 22/34/34 9/18/18
f 121/138/137 123/152/151 47/64/64 70/133/132
f 123/152/151 119/135/134 45/62/62 47/64/64
f 124/124/123 122/153/152 26/38/38
f 128/132/131 127/126/125 67/125/124
f 115/119/118 114/154/153 94/115/114 68/114/113
f 134/151/150 132/155/154 7/128/127
f 132/155/154 131/129/128 7/128/127
f 118/136/135 117/134/133 50/67/67 45/62/62
f 122/153/152 120/137/136 26/38/38
f 166/156/155 167/157/156 95/7/7 4/6/6
f 151/80/80 153/158/157 55/78/78
f 162/159/158 163/15/15 4/6/6 5/5/5
f 159/104/103 160/105/104 65/101/101
f 155/12/12 154/160/159 162/159/158 5/5/5
f 164/16/16 165/161/160 4/6/6
f 158/162/161 146/163/161 147/164/161 66/165/161
f 138/81/81 139/93/93 56/82/82
f 136/140/139 137/77/77 54/74/74
f 165/161/160 166/156/155 4/6/6
f 153/158/157 152/106/105 59/95/95 55/78/78
s 0
f 172/166/162 170/166/162 171/166/162 169/166/162 175/166/162 173/166/162 174/166/162 168/166/162
l 72 71
